<svg xmlns="http://www.w3.org/2000/svg" width="297.138" height="228.561" viewBox="0 0 297.138 228.561">
  <g id="undraw_handcrafts_travel" transform="translate(0 0)">
    <path id="Path_5" data-name="Path 5" d="M702.5,155.18c-4.5,2.756-9.037,5.564-12.728,9.333-10.047,10.261-12.111,27.009-6.1,40.051s19.2,22.114,33.356,24.546c9.4,1.616,20.221.005,26.294-7.352,3.114-3.773,4.613-8.593,5.892-13.314a234.516,234.516,0,0,0,6.714-35.394c.863-7.763,5.027-25.982,1.077-33.045C749.01,125.709,711.752,149.509,702.5,155.18Z" transform="translate(-488.159 -128.772)" fill="#9cec5b"/>
    <path id="Path_6" data-name="Path 6" d="M506.148,472.725c-.122-.311-.224-.583-.339-.883a7.1,7.1,0,0,0,2.462-2.342,13.216,13.216,0,0,0,.383-12.954c-1.551-2.909-5.69-7.7-9.032-4.564-1.314,1.664-1.406,3.9-1.709,5.936-.223-.176-.416-.36-.658-.531a13.012,13.012,0,0,0-6.274-2.056c-3.062-.358-6.122-.791-9.2-.98a4.534,4.534,0,0,1,.658.084c-3.1-.395-6.227-.5-9.344-.614-6.21-.193-12.39.957-18.589.879-1.115-1.873-2.553-6.483-4.919-11.928A48.227,48.227,0,0,0,439.168,427.2a58.324,58.324,0,0,0-12.431-8.052,28.164,28.164,0,0,0-10.964-3.525c-5.979-.349-11.979.44-17.952.734-8.938.527-17.868,1.074-26.78,1.933-9.9.79-19.93,1.406-29.6,3.8-4.48,1.3-9.321,2.344-12.976,5.4-6.012,6.58-8.826,15.445-13.572,22.913-3.739,6.166-5.077,8.585-7.7,10.306a78.006,78.006,0,0,0-17.578,5.8,15.782,15.782,0,0,0-5.426,3.359,6.386,6.386,0,0,0-1.442,6.187c.338,2.55.86,5.07,1.411,7.582.055.246.094.488.147.733a48.27,48.27,0,0,1-6.622.093c-1.093,0-2.384-.358-3.29.432-.966,1.033-.956,2.6-1.052,3.939a22.3,22.3,0,0,0,.223,5.82c.713,2.36,3.66,2.329,5.689,2.388a59.538,59.538,0,0,0,6.971-.418c.1.864.2,1.725.3,2.6.057-.888.094-1.776.139-2.664a8.357,8.357,0,0,0,1.734-.435c-.563-.065-1.131-.123-1.7-.179a127.137,127.137,0,0,0-.076-14.851c-.02-2.415-.443-5.45.061-7.568.146-.052.47-.536.781-.7l-.048.038c-.287.221-.006.015.161-.1.2-.126.4-.249.607-.356a81.334,81.334,0,0,1,14.914-4.074c1.862-.447,3.821-.156,7.109-1.141,3.565-1.324,6.207-4.24,8.559-7.118a136.189,136.189,0,0,0,8.786-12.232c2.407-3.82,4.674-7.736,7.337-11.388a8.107,8.107,0,0,1,.7-.71c.265-.161.534-.312.813-.448,11.881-3.781,19.281-4.274,31.276-4.964-.615,7.052-1.079,14.117-1.774,21.161,0,.015.036-.261.054-.4l0,.03a9.661,9.661,0,0,1-.707,2.948,4.35,4.35,0,0,1-1.763,1.062,18.323,18.323,0,0,1-8.331,1.332,119.368,119.368,0,0,0-21.641.5c-1.452.156-2.9.33-4.354.495,6.864,1.218,13.288,1.8,20.407,2.678.245.044.94.1.675.085q-.245-.033.02,0a52.5,52.5,0,0,0,7.756.865c4.067-.219,9.132-.991,11.338-4.844,1.262-2.917.681-6.234.541-9.315-.462-5.561-1.112-11.109-2-16.617,1.473-.085,3-.172,4.631-.269,4.473-.291,8.943-.641,13.41-1.013,2.315,20.859,1.925,41.974,6.166,61.914.508-12.089,1.408-24.255.095-36.321a108.389,108.389,0,0,0-6.166-25.6c4.882-.407,9.763-.841,14.642-1.275,1.218-.093,2.367-.193,3.486-.29,1.139,10.229,1.121,20.8,4.18,30.664,4.534,7.729,15.948,4.126,23.185,3.336,2.315-.368,4.613-.827,6.909-1.3-.121,2.714-.411,6.128-.716,8.074-.034.778-.635,1.945.563,2.68,3.168,1.4,6.149-1.82,7.228-4.544a8.57,8.57,0,0,0,.48-4.19,10.16,10.16,0,0,0,8.828,3.911c8.292-.48,24.523-1.763,27.807-1.353a76.318,76.318,0,0,1,8.5,1.3c.035.02.072.037.106.058,2.349,2.46,2.193,3.674,4.6,10.328.246.751.507,1.5.764,2.245-1.44.412-.349.133-7.115.724-1.154.108-2.763.05-2.3.155a9.452,9.452,0,0,0-1.391-.054c-2.622-.122-.914.111-5.08-.715-6.125-1.41-11.932-4.065-18.19-4.921-15.922-3.1-21.748,12.589-26.092,15.866-5.279,3.834-7.4,2.634-17.708,2.431-20.14-.419-40.3.141-60.427.761a92.278,92.278,0,0,1-13.37-.36,37.061,37.061,0,0,1-7.876-2.344l-.285-.123c-7.122-3.23-14.226-7.273-22.235-7.5-3.538-.1-7.222.11-10.445,1.705a25.435,25.435,0,0,0-7.374,6.763c-1.025,1.232-1.88,2.672-2.963,3.864-.04-.146-.079-.3-.12-.444,0,.188,0,.379,0,.568a7.435,7.435,0,0,1-2.077,1.614,12.579,12.579,0,0,1-2.081.82,13.468,13.468,0,0,0,1.832-.313,7.294,7.294,0,0,0,2.322-1.01c-.019,5.231.051,10.7,2.525,15.394a11.184,11.184,0,0,0,16.8,3.529c3.509-2.657,5.157-7.009,6.09-11.174a34.3,34.3,0,0,0,1.068-10.122c-2.549,7.737-5.965,18.257-13.315,19.116-9.1,1.026-10.844-9.54-12.782-17.021a13.994,13.994,0,0,0,1.538-1.267c6.138-6.158,10.548-8.8,17.429-7.168,8.381,1.249,14.537,7.362,23.2,11.462,8.588,4.13,18.4,4.008,27.724,4.42q23.63.84,47.271.161c12.027-.356,24.8,2.655,34.065-7.126,2.893-2.946,5.021-6.6,8.167-9.3l.058-.041a18.593,18.593,0,0,1,1.948-.569c.191-.022.38-.053.57-.078h.009l.04-.006c.32-.042.641-.078.959-.131.323-.014,1.007-.046,1.665-.016.69.126,1.869.347,2.541.55,5.654,1.338,11.19,3.749,16.9,4.9.671,11.741-6.573,25.67-15.748,29.842-4,2-9.868.148-12.772-5.1-2.986-4.787-4.014-12.1-4.928-18.776-.778,8.279-1.622,17.727,3.642,24.778,8.708,11.121,22.4,4.419,27.792-6.312a36.443,36.443,0,0,0,4.194-17.837,24.8,24.8,0,0,0-1.312-6.439,27.363,27.363,0,0,0,7.191.4c3.488-.434,21.143-.925,22.764-8.669a7.711,7.711,0,0,0-.63-5.194C507.006,475.121,507.772,477.124,506.148,472.725ZM276.31,494.133c-.216-.052-.191-.683-.189-1.567,0-1.873-.179-4.685-.158-6.069a30.954,30.954,0,0,0,8.432-1.655c.775,3.709,1.3,7.345,1.742,11.056A39.4,39.4,0,0,1,276.31,494.133Zm145.838-35.591a22.315,22.315,0,0,1-7.031-.651c-1.631-.55-2.833-1.409-3.15-2.917-2.588-9.153-4.539-18.5-7.56-27.523,5.093-.447,9.181-.828,12.339-.234a47.54,47.54,0,0,1,12.586,6.526,28.093,28.093,0,0,1,2.35,2.269c3.179,3.489,1.458,1.423,3.773,4.633,4.29,7.069,4.225,8,6.883,14.684.361.98.752,1.932,1.178,2.846-7.122-.19-14.248.233-21.369.367Zm19.368,9.906a3.686,3.686,0,0,1-2.115.785,48.4,48.4,0,0,0-.873-9.08c1.8-.372,3.608-.751,5.417-1.1.159.309.334.6.5.893A8.326,8.326,0,0,1,441.517,468.448Zm56.459-10.48c1.824-4.324,2.989-7.393,6.345-3.028,3.172,4.208,4.987,10.268,2.134,15.528a6.444,6.444,0,0,1-.784,1.017C503.2,465.062,501.943,461.119,497.975,457.968Z" transform="translate(-239.852 -299.594)"/>
    <path id="Path_7" data-name="Path 7" d="M425.558,553.308a20.184,20.184,0,0,0,12.33.055C433.778,553.48,429.666,553.475,425.558,553.308Z" transform="translate(-332.757 -383.64)"/>
    <path id="Path_8" data-name="Path 8" d="M620.7,556.854a25.093,25.093,0,0,0,7.966,0A24.993,24.993,0,0,0,620.7,556.854Z" transform="translate(-451.794 -385.609)"/>
    <path id="Path_9" data-name="Path 9" d="M743.6,616.362a8.005,8.005,0,0,0-1.55,1.343,4.188,4.188,0,0,1,2.745-.895,3.714,3.714,0,0,1,2.638,2.287,9.264,9.264,0,0,1,.723,5.746c-.77,3.476-4.11,7.078-5.987,1.961-1.053-2.1-2.006-6.163-1.041-9.123a11.635,11.635,0,0,0-1,8.132c.433,2.057.955,4.5,2.984,5.556,3.971,1.809,7.241-2.982,7.422-6.513C751.091,621.068,748.313,614.334,743.6,616.362Z" transform="translate(-524.448 -421.877)"/>
    <path id="Path_10" data-name="Path 10" d="M354.948,618.262a2.232,2.232,0,0,0-.768-.113,1.888,1.888,0,0,1,1.049.743,5.6,5.6,0,0,1-.051,6.207c-1.217,1.94-3.584,1.49-3.991-.772a5.959,5.959,0,0,1,1.46-6.61,5.936,5.936,0,0,0-3,6.355,5.06,5.06,0,0,0,1.036,3.042,3.643,3.643,0,0,0,5.961-.737C358.295,623.891,357.7,619.708,354.948,618.262Z" transform="translate(-286.381 -422.931)"/>
    <path id="Path_11" data-name="Path 11" d="M653.783,482.341c.483,1.521-15.729,4.6-17.058,4.956,1.9-5.362-.272-16.806,4.7-20.819C647.22,461.794,652.589,478.576,653.783,482.341Z" transform="translate(-461.572 -330.174)" fill="#9cec5b"/>
    <path id="Path_12" data-name="Path 12" d="M314.67,305.762c-4.962,4.66-2.066,14.034,4.193,16.711s13.78-.1,18.591-4.917,7.5-11.3,10.082-17.6a6.354,6.354,0,0,0-9.41-7.689C329.235,298.208,318.97,301.723,314.67,305.762Z" transform="translate(-263.58 -223.751)" fill="#9cec5b"/>
    <path id="Path_13" data-name="Path 13" d="M327.472,297.234c-.635-5.5-4.842-10.675-10.741-10.328a22.318,22.318,0,0,0-8.844,2.365,14.789,14.789,0,0,0-2.34.555,16.37,16.37,0,0,0-4.914,2.788,47.372,47.372,0,0,1,4.734-2.089c-.643.338-1.28.682-1.91,1.026a52.715,52.715,0,0,1,9.065-2.819,15.065,15.065,0,0,1,3.057-.262,9.925,9.925,0,0,1,3.472.439c3.769,1.287,5.524,5.207,6.033,8.027.443,2.3-.622,5.731-1.164,7.092a18.156,18.156,0,0,1-4.232,6.259,14.909,14.909,0,0,1-4.894,2.268,20.472,20.472,0,0,1-8.648,1,12.322,12.322,0,0,1-9.119-6.11,9.43,9.43,0,0,1-.782-6,38.047,38.047,0,0,1,1.084-5.647,32.354,32.354,0,0,0-2.208,7.91,9.669,9.669,0,0,0,2.106,6.765A13.274,13.274,0,0,0,306,315.706a24.246,24.246,0,0,0,13.916-2.781C324.423,310.137,327.986,302.483,327.472,297.234Z" transform="translate(-253.172 -221.121)"/>
    <path id="Path_14" data-name="Path 14" d="M189.482,670.461l113.395-.359,113.395-.359c21.075-.067,42.165-.133,63.214,1.082,2.507.145,2.5-3.756,0-3.9-18.75-1.082-37.536-1.15-56.312-1.1q-28.328.072-56.657.178l-113.395.359-63.64.2C186.973,666.569,186.968,670.469,189.482,670.461Z" transform="translate(-187.598 -452.269)"/>
    <path id="Path_15" data-name="Path 15" d="M787.134,413.817l15.528-21.478c5.049-6.984,10.264-13.879,15.123-21,4.241-6.212,8.183-13.527,7.2-21.309-.959-7.63-6.138-14-11.486-19.188-10.531-10.215-23.888-16.687-36.054-24.642-10.885-7.117-21.851-16.691-26.148-29.247a31.171,31.171,0,0,1-1.777-9.609,5.394,5.394,0,0,1,1.245-4.167,9.871,9.871,0,0,1,3.813-1.835,132.513,132.513,0,0,1,24.523-5.3q3.09-.363,6.194-.585a2,2,0,0,0,1.95-1.95,1.966,1.966,0,0,0-1.95-1.95,139.984,139.984,0,0,0-25.338,4.171q-3.083.808-6.126,1.759a16.668,16.668,0,0,0-4.813,2.112,7.669,7.669,0,0,0-3.161,4.831,19.04,19.04,0,0,0-.055,5.617c1.536,14.11,11.193,25.574,22,34.027,11.49,8.985,24.925,15.061,36.479,23.954,5.583,4.3,11.146,9.435,14.563,15.679a18.067,18.067,0,0,1,2.324,10.319,25.952,25.952,0,0,1-3.513,10.151,99.27,99.27,0,0,1-6.558,9.852l-7.81,10.8-15.62,21.606-3.905,5.4a1.965,1.965,0,0,0,.7,2.668,1.993,1.993,0,0,0,2.668-.7Z" transform="translate(-528.001 -199.571)"/>
    <path id="Path_16" data-name="Path 16" d="M720.821,232.075a97.081,97.081,0,0,1-19.349-.407l-.6-.077c.38.05-.276-.039-.281-.039q-.6-.085-1.2-.177-1.195-.185-2.384-.4-2.375-.438-4.722-1.013a76.607,76.607,0,0,1-9.2-2.872q-.563-.216-1.121-.441l-.558-.228c.007,0-.6-.252-.275-.114q-1.11-.472-2.2-.983-2.064-.964-4.062-2.064a64.759,64.759,0,0,1-7.04-4.506q-.422-.31-.838-.627c-.033-.025-.489-.378-.158-.12l-.412-.323q-.82-.649-1.62-1.325-1.6-1.35-3.1-2.8a62.891,62.891,0,0,1-5.583-6.19c-.357-.45.227.3-.12-.154-.1-.138-.21-.276-.314-.415q-.312-.416-.616-.837-.608-.843-1.186-1.707-1.153-1.726-2.174-3.535t-1.9-3.689q-.219-.47-.428-.945c-.07-.158-.138-.317-.207-.476-.229-.526.144.36-.072-.172-.261-.642-.516-1.285-.755-1.936a47.437,47.437,0,0,1-2.1-7.622q-.176-.945-.314-1.9c-.011-.079-.082-.616-.018-.116-.014-.106-.027-.212-.041-.318q-.069-.556-.125-1.114-.193-1.911-.236-3.834a53.541,53.541,0,0,1,.406-7.674c.065-.538-.062.419.016-.118.023-.159.045-.318.069-.476q.071-.476.151-.951.16-.95.354-1.894.388-1.889.911-3.747t1.176-3.675q.326-.908.685-1.8c.1-.249.2-.5.3-.744-.18.435.027-.063.055-.126q.127-.3.258-.589a53.824,53.824,0,0,1,3.628-6.8q1.026-1.629,2.169-3.179.285-.387.578-.769c-.279.366.048-.06.089-.112q.149-.189.3-.376.6-.75,1.231-1.476a49.074,49.074,0,0,1,5.462-5.4c.47-.4.949-.781,1.432-1.16.252-.2-.365.273.05-.037.129-.1.256-.193.385-.289q.451-.335.91-.659,1.71-1.207,3.523-2.258,2.085-1.215,4.272-2.242c.666-.315,1.339-.615,2.016-.907a2.355,2.355,0,0,1,.275-.116l.558-.228q.653-.263,1.312-.513a100.454,100.454,0,0,1,18.774-4.83c6.908-1.179,13.727-1.943,20.848-2.458s14.264-.745,21.405-.8c3.182-.024,6.4-.145,9.579.119.33.027.659.063.987.1.089.01.379.065-.028,0,.162.027.325.049.486.077a15.376,15.376,0,0,1,2.04.484c.276.087.544.191.816.291.292.107-.411-.206.035.018.138.069.279.133.416.2a8.584,8.584,0,0,1,.792.467q.191.127.374.264c-.395-.3.123.121.191.185a7.113,7.113,0,0,1,.587.613c.071.084.262.372.035.038.1.147.2.292.3.444s.188.32.272.486c.013.026.259.578.108.208a9.066,9.066,0,0,1,.393,1.237c.083.334.149.671.2,1.011.014.089.065.5.022.137q.033.283.059.567c.075.826.1,1.656.121,2.485q.128,5.106-.014,10.214a198.572,198.572,0,0,1-1.623,20.356c-.025.193-.048.361-.1.747q-.088.632-.18,1.264-.2,1.369-.417,2.735-.4,2.522-.871,5.033-.935,5.021-2.13,9.989a196.358,196.358,0,0,1-5.8,19.58c-2.144,6.06-4.144,11.618-7.627,17.072a29.057,29.057,0,0,1-2.542,3.477,28.623,28.623,0,0,1-3.127,3.151c-.281.242-.569.476-.858.708-.472.381.3-.211-.193.148-.15.11-.3.221-.448.33q-.9.651-1.855,1.23t-1.945,1.083q-.5.252-1,.485c-.169.078-.339.152-.508.228-.413.185.166-.06-.218.092a30.7,30.7,0,0,1-4.056,1.31q-1.082.262-2.181.439c-.183.029-.367.057-.55.083.428-.059-.179.019-.218.023-.369.042-.738.074-1.108.1a1.95,1.95,0,1,0,0,3.9,31.064,31.064,0,0,0,17.615-7.163c4.924-4.12,8.19-9.831,10.7-15.654a186.54,186.54,0,0,0,11.888-40,194.284,194.284,0,0,0,3.246-41.745c-.113-3.278-.639-6.711-3.106-9.1-2.2-2.128-5.2-2.913-8.154-3.252a79.757,79.757,0,0,0-9.51-.206q-5.469.029-10.935.208c-7.281.247-14.558.732-21.8,1.57a165.162,165.162,0,0,0-20.773,3.541,71.412,71.412,0,0,0-18.816,7.311,49.845,49.845,0,0,0-12.551,10.408,56.053,56.053,0,0,0-13.093,29.433,50.53,50.53,0,0,0,6.214,31.769A63.366,63.366,0,0,0,672.9,226.622c11.648,6.435,25,9.373,38.236,9.635,3.23.064,6.461-.037,9.683-.281a1.95,1.95,0,1,0,0-3.9Z" transform="translate(-464.543 -118.248)"/>
  </g>
</svg>
