<svg xmlns="http://www.w3.org/2000/svg" width="400" height="410.622" viewBox="0 0 400 410.622">
  <g id="undraw_handcrafts_location" transform="translate(16.273 0)">
    <path id="Path_1" data-name="Path 1" d="M506.35,259.092a584.321,584.321,0,0,0-2.777,155.395c1.708,14.7-13.892,25.649-28.359,28.747s-30.3,2.243-42.953,9.906-17.6,29.548-4.3,36.045c36.076,17.634,84.957.77,102.485-35.357,7.583-15.63-23.532-30-16.957-46.077a208.228,208.228,0,0,0,5.887-139.815l7.188-10.35c-4.7-6.03-14.445-7.263-20.5-2.593S498.733,269.4,506.35,259.092Z" transform="translate(-370.219 -201.019)" fill="#9cec5b"/>
    <path id="Path_2" data-name="Path 2" d="M762.378,407.918c-6.338-5.272-16.4,1.205-18.8,9.092s-.442,16.416-1.4,24.6-7.164,17.216-15.309,15.94a25.133,25.133,0,0,0-23.106,41.03c4.339,6.613,14.908,5.6,20.992.549s9.27-12.684,13.677-19.252,11.413-12.666,19.255-11.639c17.122,2.243,34.6-12.073,35.766-29.3s-14.208-33.775-31.476-33.867l-3.931,8.286C753.468,414.781,748.891,416.2,762.378,407.918Z" transform="translate(-431.529 -234.772)" fill="#9cec5b"/>
    <path id="Path_3" data-name="Path 3" d="M687.308,499.946c-.009.023-.015.049-.024.072.024-.048.047-.095.07-.143a.874.874,0,0,0,.015-.09C687.349,499.839,687.331,499.893,687.308,499.946Z" transform="translate(-429.198 -255.678)"/>
    <path id="Path_4" data-name="Path 4" d="M733.919,380.856c-1.719-12.595-6.043-24.636-10.775-36.375-14.434-35.319-34.9-63.222-66.56-82.772.691-1.808,1.37-3.623,1.985-5.472,3.695-14.619,4.909-31.37-2.517-45.026-12.658-17.392-25.831-21.986-45.53-24.144-7.988-.558-16.009-.59-24.013-.482-8.191.108-16.557,1.293-23.816,5.3-12.288,6.4-16.76,16.819-17.878,28.493a184.46,184.46,0,0,0-32.6-2.044,119.967,119.967,0,0,0-39.939,9.888c-2.156.924-4.284,1.917-6.392,2.945a152.935,152.935,0,0,1,15.621-2.741c19.574-2.4,33.757-.8,50.992,3.255C524.948,241.7,517.234,251.7,511.444,262.8c-3.168,7.715,7.318,14.411,11.379,19.868.679.867.828,1.019.719.859a34.4,34.4,0,0,1,3.777,5.852,18.72,18.72,0,0,1,.742,9.328c-2.278,9.469-11.828,23.146-19.53,34.637-6.573,10.269,2.166,20.091,6.067,24.024,5.847,6.177,5.5,5.167,7.074,9.536.652,3.677.586,4.3-.3,8.251-2.245,6.406-.8,3.507-6.495,13.295-2.555,4.336-6.005,8.555-6.388,13.751.037,8.43,8.672,12.749,15.554,15.346,3.872,1.577,7.989,2.41,11.914,3.818.089.048.164.089.243.133.15.14.3.28.437.431l.1.152c.047.082.072.129.113.2a19.722,19.722,0,0,1,.815,3.214c.072.622.146,1.243.215,1.865a88.254,88.254,0,0,1-.081,16.778c-4.862,19.9,19.85,16.581,29.563,18.24,5.46.858,10.555,3.032,15.727,4.885,4.073,1.893,8.721,3.038,12.916.849,12.619-5.471,9.652-25.658,13.325-36.505.223-.221.509-.5.862-.818a69.7,69.7,0,0,1,11.056-6.415c5.4-2.1,9.787-7.121,9.925-13.073.137-6.635-3.413-12.483-6.354-18.312.234-.166.462-.341.7-.5a75.4,75.4,0,0,1,9.922-4.911l1.389-.59c.168-.058.6-.231,1.273-.532,13.967-6.285,30.309-5.668,22.866-26.23-1.994-5.066-1.567-5.41-1.154-6.189,3.182-4.037,7.454-5.931,12.321-8.481,6.9-3.374,13.931-6.52,20.467-10.571,1.546-.949,3.032-1.99,4.516-3.031,9.828,18.106,16.811,37.59,19.037,51.667,1.354,20.631,1.4,37.07-1.572,53.795a107.1,107.1,0,0,0-25.969-2.4c-10.51,1.448-21.767,1.991-31.248,7.156a14.093,14.093,0,0,0-6.954,14.233c-8.214,2.056-16.5,3.845-24.694,5.967-12.345,3.207-24.609,6.826-36.346,11.86a86.691,86.691,0,0,0-17.416,9.083c-13.068-5.516-25.863-12.306-39.9-14.9-17.743-3.626-29.732,5.39-40.849,18.018-.243.229-.507.433-.762.647a13.765,13.765,0,0,1-1.253.753l-.032.015c-.224.079-.45.153-.677.221a13.986,13.986,0,0,1-1.942-.585c-.8-.306-.811-.3-.528-.17l-.431-.182q-.217-.073-.428-.162c-.714-.356-1.271-.416-4.906-2.115-6.486-2.875-12.693-6.881-19.8-7.983a34.443,34.443,0,0,0-13.668.58c-4.007.952-8.156,2.134-11.32,4.891-5.73,5.967-5.342,8.266-12.348,13.629-6.616,5.459-20.7,5.831-31.091,9.846a162.8,162.8,0,0,1-14.305-25.977,167.693,167.693,0,0,1-10.477-38.7c9,8.394,20.02,12.961,31.864,4.175,14.49-10.563,18.026-27.165,29.654-36.233,3.242-2.493,4.066-3.911,10.236-6.806l.146-.063.583-.24c5.315-2.148,10.729-4.187,15.562-7.319,8.509-5.773,18.864-17.913,15.33-28.858-2.068-5.321-6.528-9.034-10.489-12.991,10.965-9.841,21.7-21.909,21.76-37.383a23.466,23.466,0,0,0-2.36-10.326c.087.206.171.405.165.389a55.433,55.433,0,0,0-5.655-9.9c-3.59-5.825-11.883-15.28-8.855-19.917,5.2-4.35,10.45-8.677,14.756-13.96,2.184-2.757,4.718-5.652,4.983-9.313.344-6.756-5.262-11.836-8.23-17.456,4.7,11.632,11.13,15.952-1.086,25.589-12.914,11.537-25.522,9.864-12.489,33.381,8.164,14.756,9.916,16.985,6.427,27.324-2.063,5.93-6.247,10.653-14.666,18.393-4.974,4.582-11.616,9.028-8.2,16.738,1.771,4.174,5.722,6.839,8.713,10.089.457.48.863,1,1.279,1.519.307.452.878,1.292,1.231,1.933l.01.031c0,.03,0,.059,0,.089a15.978,15.978,0,0,1-.484,1.727c-1.18,3.021-6.7,10.807-16.207,14.526-4.1,2.115-8.445,3.809-12.266,6.421a62.968,62.968,0,0,0-15.14,15.68c-5.286,7.755-7.938,16.977-13.219,24.755-7.49,11.058-16.927,16.588-31.462,6.768-.771-.508-1.527-1.036-2.277-1.573-1.041-8.149-1.529-16.348-1.808-25.187-.93-50.279,14.159-104.236,45.19-139.407,13.175-14.423,25.881-21.934,44.717-30.993,7.22-2.665,22.017-8.129,31.918-11.4-11.44,1.816-22.92,3.465-34.226,6.011-21.622,5.932-42.859,15.664-58.5,32.123a135.051,135.051,0,0,0-31.029,50.869C351.244,353.419,347.8,378,347.9,410.808c.752,23.886,3.963,48.142,12.92,70.437,13.028,31.242,33.426,60.485,61.219,80.237,17.395,11.443,36.61,20.644,56.854,25.7,20.74,4.712,41.807,8.291,63.048,9.645,39.148,2.414,79.371-8.354,110.588-32.46,8.864-6.8,17.815-13.574,25.82-21.394a198.53,198.53,0,0,0,20.566-24.9c18.6-26.288,31.952-56.886,35.111-89.125C735.307,412.994,735.933,396.771,733.919,380.856ZM635.15,271.109c-7.624,17.855-18.683,37.029-29.908,62.181-3.2,7.06-5.954,14.308-8.666,21.567-3.437-.907-5.8-6.9-9.032-19.036-4.092-14.4-7.521-28.983-12.027-43.262-3.167-10.178-6.58-20.293-9.012-30.68q-2.694-10.854-4.427-21.917l-1.43-15.744c.336-6.942,2.586-12.241,6.091-15.2,3.421-3.178,10.929-6.375,20.642-6.1,25.171-.161,39.345-.714,52.722,15.3,2.763,4.313,1.7,2.4,3.45,9.81.537,3.212.421,17.335-1.324,22.845-.212.829-.461,1.656-.694,2.483m-52.131-3.473c-3.191-3.656,1.647-18.531,1.647-18.531.12-.259.227-.516.359-.778,2.357-4.944,8.046-6.557,12.445-9.177-4.71,1.021-9.967,1.221-13.93,4.242a23.137,23.137,0,0,0-3.767,4.088s-6.227,11.41-5.97,16.589a41.984,41.984,0,0,0-.229,4.318c.8,14.972,18.119,22.844,30.425,14.858a24.624,24.624,0,0,0,5.451-4.082s6.882-8.492,8.057-16.714c.7-7.651-2.382-15.168-10.815-19.032a16.093,16.093,0,0,0-8.7-1.734c-.771.044-1.54.123-2.3.227.381.1.763.2,1.143.312a16.947,16.947,0,0,1,12.219,11.977,11.6,11.6,0,0,1,.436,4.336s-10.743,15.526-12.261,15.094a12.254,12.254,0,0,1-1.531.539c-4.567,1.375-9.365-.837-11.22-3.7a13.136,13.136,0,0,1-1.456-2.837m14.208,5.993L660.9,342.943c-14.642,6.174-11.093,16.35-10.229,23.857.021.437.041.875.044,1.312-2.008.72-4.082,1.256-6.127,1.861-17.206,5.28-34.875,9.125-36.21,21.183-.616-.315-1.26-.617-1.951-.895-1.056-.434-2.138-.8-3.229-1.133a34.872,34.872,0,0,1,5.126,4.691c.013.013.024.029.037.042a24.561,24.561,0,0,0,2.766,8.87c-.014.1-.017.2-.034.3a15.628,15.628,0,0,1-5.985,8.96,24.421,24.421,0,0,1-11.323,4.817c-6.014,1.333-13.548-.006-17.379-4.153-4.172-3.99-4.884-7.037-2.786-13.245a23.269,23.269,0,0,1,7-10.2c3.89-3.21,8.627-5.176,12.912-7.788-6.659,1.453-13.8,2.237-19.417,6.431-7.208,5.332-12.71,14.817-10.089,23.915,4,12.589,16.954,17.965,29.052,15.84-2.848,7.786-2.57,16.428-4.865,24.382l-.01.026c-3.961-1.069-7.7-2.926-11.7-3.9a77.731,77.731,0,0,0-16.594-2.167c-4.547-.372-5.659-.31-6.915-.508a88.05,88.05,0,0,0-.907-25.18c-1.269-5.82-5.22-11.157-10.986-13.091-7.363-2.629-13.259-3.611-17.028-5.707,2.634-4.568,5.683-8.9,7.958-13.676,5.716-10.95,6.511-25.393-2.266-34.979-5.769-6.368-9.261-8.968-10.171-11.645.028-.1.036-.212.068-.315,3.906-6.053,18.449-28.272,19.127-42.548a28.239,28.239,0,0,0-3.262-13.582,45.665,45.665,0,0,0-7.987-9.121c-3.282-3.039-7.808-5.958-9.983-9.142a6.2,6.2,0,0,1-.635-1.217,30.689,30.689,0,0,1,1.288-3.691c3.7-8.079,9.81-19.446,15.437-29.59.62.149,1.233.292,1.861.447,3.109.759,6.2,1.574,9.29,2.414.125,1.74.271,3.482.448,5.221a175.943,175.943,0,0,0,9.259,38.312c2.7,7.581,11.807,27.336,13.044,30.847,6.308,15.342,9.961,25.8,16.815,39.858,2.575,5.346,7.315,11.534,13.975,10.385,3.372-.7,5.839-3.374,7.842-6.008,3.133-4.095,5.684-8.594,8.435-12.945-8.438,9.383-13.463,14.578-17.191,14.482.877-1.321,1.756-2.64,2.627-3.965,15.406-24.359,35.044-46.584,48.606-72.061,8.643,5.409,16.245,11.083,21.625,16.792,9.767,8.948,18.757,21.576,26.188,35.051-11.65,4.822-23.763,7.4-35.576,12.154Zm-4.735,196.2c-12.788,10.6-22.77,18.555-41.068,27.54-8.5,4.822-36.978,12.539-46.486,12.728-24.111,2.2-45.553-.7-64.134-3.91-28.757-4.839-46.568-10.984-70.2-25.516-14.606-8.393-30.131-26.033-41.777-43.449a87.611,87.611,0,0,1,15.6-1.738c8.548-.131,16.982-1.776,23.8-7.249,3.192-2.136,6.332-5.924,8.714-8.135,5.309-2.97,12.367-2.533,14.955-2.3,7,1.249,12.09,5.759,20.723,10.662,4.01,2.28,8.086,4.984,12.833,5.177,8.157.15,14.219-6.185,19.481-11.642,3.79-3.572,1.454-1.7,7.256-5.386a24.724,24.724,0,0,1,2.441-1.337,20.85,20.85,0,0,1,3.348-.958l.151-.026c12.471-.849,24.66,5.989,37.552,11.439,5.807,2.181,12.123,7.451,18.393,3.882,4.181-2.7,1.932-1.652,8.173-5.328,10.6-5.6,21.242-9.225,36.61-14.344,9.344-2.972,18.779-5.653,28.164-8.491,4.142-1.437,8.895-1.868,12.378-4.682,3.283-2.969,2.667-7.9.382-11.313a15.643,15.643,0,0,1-.983-1.662c0-.071-.008-.141-.007-.212s.018-.111.029-.2c.039-.111.068-.2.095-.276,1.9-1.809-.232-.921,6.363-4.231,3.593-1.549,24.635-8.548,32.41-7.97,4.252-.271,8.513-.387,12.774-.4a170.981,170.981,0,0,1-9.434,31.2c48.526,107.327,31.03,137.474,8.752,155.18Z" transform="translate(-351.488 -186.536)"/>
  </g>
</svg>
