<svg xmlns="http://www.w3.org/2000/svg" width="532" height="275.902" viewBox="0 0 532 275.902">
  <g id="undraw_factory_dy-0-a" transform="translate(0 0.002)">
    <path id="Path_87" data-name="Path 87" d="M359.5,601.854l-13.1-20.8,13.111,23.063.007,2.37q1.4-.016,2.776-.107L361.22,575.94l.014-.235-.024-.045-.1-2.877,13.7-22.794-13.716,20.639-.041.609-.807-23,11.78-23.583L360.153,544.2l-.552-47.672,0-.159,0,.156-.269,37.586L348.072,519.07l11.266,18.276.052,20.586L348.946,538.05l10.45,22.909.029,11.447-15.171-27.683L359.437,576.4Z" transform="translate(-231.471 -330.639)" fill="#e2e2e2"/>
    <path id="Path_88" data-name="Path 88" d="M547.211,601.854l-13.105-20.8,13.111,23.063.007,2.37q1.4-.016,2.776-.108l-1.069-30.441.014-.235-.024-.045-.1-2.877,13.7-22.794-13.716,20.639-.041.609-.807-23,11.78-23.583L547.865,544.2l-.552-47.672,0-.159,0,.156-.269,37.586L535.784,519.07l11.266,18.276.052,20.586L536.658,538.05l10.45,22.909.029,11.447-15.171-27.683L547.149,576.4Z" transform="translate(-306.725 -330.639)" fill="#e2e2e2"/>
    <path id="Path_89" data-name="Path 89" d="M174.444,623.7l-9.463-15.017,9.467,16.653.005,1.711q1.013-.012,2-.078l-.772-21.982.01-.17-.017-.032-.073-2.077,9.895-16.459-9.9,14.9-.03.44-.583-16.608,8.506-17.029-8.573,14.111-.4-34.424,0-.115v.113l-.194,27.141-8.128-10.859,8.135,13.2.038,14.865-7.542-14.357,7.546,16.542.021,8.266-10.955-19.99L174.4,605.323Z" transform="translate(-158.981 -351.151)" fill="#e2e2e2"/>
    <path id="Path_90" data-name="Path 90" d="M1003.748,601.854l-13.1-20.8,13.111,23.063.007,2.37q1.4-.016,2.776-.107l-1.069-30.442.014-.235-.024-.045-.1-2.877,13.7-22.794-13.716,20.639-.041.609-.807-23,11.78-23.583L1004.4,544.2l-.552-47.672,0-.159,0,.156-.269,37.586L992.321,519.07l11.266,18.276.052,20.586L993.2,538.05l10.45,22.909.029,11.447L988.5,544.723l15.183,31.677Z" transform="translate(-489.751 -330.639)" fill="#e2e2e2"/>
    <rect id="Rectangle_4" data-name="Rectangle 4" width="70.694" height="2.995" transform="translate(229.284 239.816) rotate(180)" fill="#9cec5b"/>
    <rect id="Rectangle_5" data-name="Rectangle 5" width="70.694" height="2.995" transform="translate(225.689 236.82) rotate(180)" fill="#9cec5b"/>
    <rect id="Rectangle_6" data-name="Rectangle 6" width="70.694" height="2.995" transform="translate(229.883 233.825) rotate(180)" fill="#9cec5b"/>
    <rect id="Rectangle_7" data-name="Rectangle 7" width="70.694" height="2.995" transform="translate(237.072 230.829) rotate(180)" fill="#9cec5b"/>
    <rect id="Rectangle_8" data-name="Rectangle 8" width="2.454" height="17.427" transform="translate(108.683 232.024) rotate(180)" fill="#3f3d56"/>
    <rect id="Rectangle_9" data-name="Rectangle 9" width="2.454" height="98.025" transform="translate(107.144 216.65) rotate(-112.092)" fill="#3f3d56"/>
    <rect id="Rectangle_10" data-name="Rectangle 10" width="21.354" height="8.345" transform="translate(82.174 258.041) rotate(180)" fill="#3f3d56"/>
    <rect id="Rectangle_11" data-name="Rectangle 11" width="105.298" height="9.327" transform="translate(168.081 266.386) rotate(180)" fill="#3f3d56"/>
    <path id="Path_91" data-name="Path 91" d="M133.68,415.592h25.281V383.806h-18.9l-6.382,16.031Z" transform="translate(-53.592 -153.869)" fill="#e2e2e2"/>
    <rect id="Rectangle_12" data-name="Rectangle 12" width="10.8" height="10.8" transform="translate(101.442 242.701) rotate(180)" fill="#fff"/>
    <path id="Path_92" data-name="Path 92" d="M137.777,398.088h6.873v-10.8H141.7Z" transform="translate(-55.235 -155.265)" fill="#fff"/>
    <rect id="Rectangle_13" data-name="Rectangle 13" width="2.454" height="4.664" transform="translate(100.951 253.5) rotate(180)" fill="#3f3d56"/>
    <path id="Path_93" data-name="Path 93" d="M0,0H.123A2.332,2.332,0,0,1,2.454,2.332h0A2.332,2.332,0,0,1,.123,4.664H0V0Z" transform="translate(87.329 243.56) rotate(180)" fill="#3f3d56"/>
    <path id="Path_94" data-name="Path 94" d="M0,0H.123A2.332,2.332,0,0,1,2.454,2.332h0A2.332,2.332,0,0,1,.123,4.664H0V0Z" transform="translate(178.635 261.723) rotate(180)" fill="#3f3d56"/>
    <path id="Path_95" data-name="Path 95" d="M263.766,640.34a12.144,12.144,0,0,0-9.439,4.7h-4.8l4.664-12.991,21.722-4.284-.614,17.275h-2.1a12.144,12.144,0,0,0-9.439-4.7Z" transform="translate(-193.496 -383.316)" fill="#e2e2e2"/>
    <circle id="Ellipse_46" data-name="Ellipse 46" cx="10.677" cy="10.677" r="10.677" transform="translate(59.347 254.114)" fill="#3f3d56"/>
    <circle id="Ellipse_47" data-name="Ellipse 47" cx="5.619" cy="5.619" r="5.619" transform="translate(64.405 259.171)" fill="#e2e2e2"/>
    <circle id="Ellipse_48" data-name="Ellipse 48" cx="9.327" cy="9.327" r="9.327" transform="translate(157.159 256.691)" fill="#3f3d56"/>
    <circle id="Ellipse_49" data-name="Ellipse 49" cx="4.909" cy="4.909" r="4.909" transform="translate(161.577 261.109)" fill="#e2e2e2"/>
    <rect id="Rectangle_14" data-name="Rectangle 14" width="5.154" height="37.186" transform="translate(109.787 262.705) rotate(180)" fill="#3f3d56"/>
    <rect id="Rectangle_15" data-name="Rectangle 15" width="74.126" height="2.209" transform="translate(178.758 258.164) rotate(180)" fill="#3f3d56"/>
    <rect id="Rectangle_16" data-name="Rectangle 16" width="2.454" height="0.982" transform="translate(88.31 244.296) rotate(180)" fill="#3f3d56"/>
    <path id="Path_96" data-name="Path 96" d="M480.351,598.306a.246.246,0,0,1-.062-.191l3.385-32.011a.246.246,0,0,1,.243-.22h0a.246.246,0,0,1,.244.218l3.661,31.945a.245.245,0,0,1-.242.273l-7.046.066h0A.246.246,0,0,1,480.351,598.306Zm3.577-29.935-3.122,29.522,6.5-.061Z" transform="translate(-286.007 -358.509)" fill="#3f3d56"/>
    <path id="Path_97" data-name="Path 97" d="M0,0H.123A2.332,2.332,0,0,1,2.454,2.332h0A2.332,2.332,0,0,1,.123,4.664H0V0Z" transform="matrix(0.935, 0.354, -0.354, 0.935, 60.742, 248.923)" fill="#3f3d56"/>
    <rect id="Rectangle_17" data-name="Rectangle 17" width="2.454" height="35.836" transform="translate(199.253 213.369) rotate(180)" fill="#3f3d56"/>
    <circle id="Ellipse_50" data-name="Ellipse 50" cx="3.436" cy="3.436" r="3.436" transform="translate(104.019 211.652)" fill="#3f3d56"/>
    <rect id="Rectangle_18" data-name="Rectangle 18" width="70.694" height="2.995" transform="translate(183.153 255.991) rotate(180)" fill="#9cec5b"/>
    <rect id="Rectangle_19" data-name="Rectangle 19" width="70.694" height="2.995" transform="translate(187.347 252.996) rotate(180)" fill="#9cec5b"/>
    <rect id="Rectangle_20" data-name="Rectangle 20" width="70.694" height="2.995" transform="translate(184.351 250.599) rotate(180)" fill="#9cec5b"/>
    <rect id="Rectangle_21" data-name="Rectangle 21" width="70.694" height="2.995" transform="translate(188.545 247.604) rotate(180)" fill="#9cec5b"/>
    <path id="Path_98" data-name="Path 98" d="M532.2,340.67a9.343,9.343,0,0,1,6.133,2.285,9.349,9.349,0,0,1,4.126-.181,9.382,9.382,0,0,1,17.107,5.324H523.019A9.385,9.385,0,0,1,532.2,340.67Z" transform="translate(-303.138 -267.436)" fill="#e2e2e2"/>
    <path id="Path_99" data-name="Path 99" d="M440.766,390.09a8.833,8.833,0,0,1,5.8,2.16,8.839,8.839,0,0,1,3.9-.171,8.87,8.87,0,0,1,16.173,5.033H432.09A8.872,8.872,0,0,1,440.766,390.09Z" transform="translate(-266.685 -287.291)" fill="#e2e2e2"/>
    <path id="Path_100" data-name="Path 100" d="M348.783,308.648a9.191,9.191,0,0,1,6.033,2.248,9.2,9.2,0,0,1,4.059-.178,9.229,9.229,0,0,1,16.828,5.237H339.756a9.231,9.231,0,0,1,9.027-7.307Z" transform="translate(-229.668 -254.611)" fill="#e2e2e2"/>
    <path id="Path_101" data-name="Path 101" d="M751,404.589v74.83h29.1V403.55l-6.755.241V388.479h-4.9l-.807-33.911c1.977-1.288,3.369-4.348,3.369-7.921a12.985,12.985,0,0,0-.356-3.046,6.231,6.231,0,0,0,.671-7.589,6.235,6.235,0,1,0,8.081-9.5,6.236,6.236,0,1,0-8.4-5.851c0,.091,0,.182.007.272a6.24,6.24,0,0,0-7.991,5.022,6.236,6.236,0,1,0-4.484,11.459c0,.045,0,.09,0,.136a30.317,30.317,0,0,0,2.2,5.053,12.6,12.6,0,0,0-.643,4.041c0,3.573,1.391,6.633,3.368,7.921l-.807,33.911h-4.9v15.868Zm18.172-71.453h.016c.09,0,.179,0,.268-.007q.084.276.193.541a6.267,6.267,0,0,0-.477-.536Z" transform="translate(-394.536 -257.699)" fill="#e2e2e2"/>
    <rect id="Rectangle_22" data-name="Rectangle 22" width="88.342" height="102.2" transform="translate(428.782 274.986) rotate(180)" fill="#3f3d56"/>
    <rect id="Rectangle_23" data-name="Rectangle 23" width="23.818" height="20.786" transform="translate(396.52 274.986) rotate(180)" fill="#e2e2e2"/>
    <path id="Path_102" data-name="Path 102" d="M669.6,258.052c0,.076-.006.15-.006.226a10.36,10.36,0,0,0,3.151,7.451,10.391,10.391,0,0,0,.52.971,20.984,20.984,0,0,0-1.072,6.735c0,7.893,4.071,14.291,9.094,14.291s9.094-6.4,9.094-14.291a21.626,21.626,0,0,0-.593-5.076,10.385,10.385,0,0,0,1.118-12.649,10.391,10.391,0,1,0,13.468-15.828,10.394,10.394,0,1,0-13.993-9.752c0,.152.005.3.011.454a10.4,10.4,0,0,0-13.318,8.37,10.393,10.393,0,1,0-7.474,19.1Zm17.749-7.136c.15,0,.3-.005.447-.011q.14.461.321.9a10.4,10.4,0,0,0-.8-.892Z" transform="translate(-358.602 -219.737)" fill="#e2e2e2"/>
    <path id="Path_103" data-name="Path 103" d="M685.941,403.082h10.394l-.371-15.589v-.006l-1.36-57.16a6.647,6.647,0,0,1-6.931,0l-1.36,57.16v.006Z" transform="translate(-368.454 -264.074)" fill="#9cec5b"/>
    <path id="Path_104" data-name="Path 104" d="M498.141,232.856v124.72h48.5V231.124l-11.258.4V206.01H509.4v26.444Z" transform="translate(-199.705 -82.59)" fill="#9cec5b"/>
    <path id="Path_105" data-name="Path 105" d="M876.331,258.052c0,.076-.006.15-.006.226a10.36,10.36,0,0,0,3.151,7.451,10.4,10.4,0,0,0,.519.971,20.986,20.986,0,0,0-1.072,6.735c0,7.893,4.071,14.291,9.094,14.291s9.094-6.4,9.094-14.291a21.636,21.636,0,0,0-.593-5.076,10.385,10.385,0,0,0,1.118-12.649A10.391,10.391,0,1,0,911.1,239.881a10.394,10.394,0,1,0-13.993-9.752c0,.152.005.3.011.454a10.4,10.4,0,0,0-13.318,8.37,10.393,10.393,0,1,0-7.474,19.1Zm17.75-7.136c.15,0,.3-.005.447-.011q.14.461.321.9a10.406,10.406,0,0,0-.795-.892Z" transform="translate(-441.48 -219.737)" fill="#e2e2e2"/>
    <path id="Path_106" data-name="Path 106" d="M892.674,403.083h10.393l-1.732-72.752a10.245,10.245,0,0,1-6.929,0Z" transform="translate(-451.333 -264.075)" fill="#9cec5b"/>
    <path id="Path_107" data-name="Path 107" d="M704.871,232.856v124.72h48.5V231.124l-3.984.144-7.279.258V206.01H716.128v26.444Z" transform="translate(-282.583 -82.59)" fill="#9cec5b"/>
    <rect id="Rectangle_24" data-name="Rectangle 24" width="11.982" height="11.982" transform="translate(409.773 197.103) rotate(180)" fill="#fff"/>
    <rect id="Rectangle_25" data-name="Rectangle 25" width="11.982" height="11.982" transform="translate(390.602 197.103) rotate(180)" fill="#fff"/>
    <rect id="Rectangle_26" data-name="Rectangle 26" width="11.982" height="11.982" transform="translate(371.431 197.103) rotate(180)" fill="#fff"/>
    <rect id="Rectangle_27" data-name="Rectangle 27" width="11.982" height="11.982" transform="translate(409.773 216.274) rotate(180)" fill="#fff"/>
    <rect id="Rectangle_28" data-name="Rectangle 28" width="11.982" height="11.982" transform="translate(390.602 216.274) rotate(180)" fill="#fff"/>
    <rect id="Rectangle_29" data-name="Rectangle 29" width="11.982" height="11.982" transform="translate(371.431 216.274) rotate(180)" fill="#fff"/>
    <rect id="Rectangle_30" data-name="Rectangle 30" width="11.982" height="11.982" transform="translate(409.773 235.445) rotate(180)" fill="#fff"/>
    <rect id="Rectangle_31" data-name="Rectangle 31" width="11.982" height="11.982" transform="translate(390.602 235.445) rotate(180)" fill="#fff"/>
    <rect id="Rectangle_32" data-name="Rectangle 32" width="11.982" height="11.982" transform="translate(371.431 235.445) rotate(180)" fill="#fff"/>
    <rect id="Rectangle_33" data-name="Rectangle 33" width="11.982" height="11.982" transform="translate(328.676 192.31) rotate(180)" fill="#fff"/>
    <rect id="Rectangle_34" data-name="Rectangle 34" width="11.982" height="11.982" transform="translate(328.676 211.481) rotate(180)" fill="#fff"/>
    <rect id="Rectangle_35" data-name="Rectangle 35" width="11.982" height="11.982" transform="translate(328.676 230.652) rotate(180)" fill="#fff"/>
    <rect id="Rectangle_36" data-name="Rectangle 36" width="11.982" height="11.982" transform="translate(328.676 249.824) rotate(180)" fill="#fff"/>
    <rect id="Rectangle_37" data-name="Rectangle 37" width="11.982" height="11.982" transform="translate(452.429 192.31) rotate(180)" fill="#fff"/>
    <rect id="Rectangle_38" data-name="Rectangle 38" width="11.982" height="11.982" transform="translate(452.429 211.481) rotate(180)" fill="#fff"/>
    <rect id="Rectangle_39" data-name="Rectangle 39" width="11.982" height="11.982" transform="translate(452.429 230.652) rotate(180)" fill="#fff"/>
    <rect id="Rectangle_40" data-name="Rectangle 40" width="11.982" height="11.982" transform="translate(452.429 249.824) rotate(180)" fill="#fff"/>
    <rect id="Rectangle_41" data-name="Rectangle 41" width="532" height="1.198" transform="translate(0 274.563)" fill="#3f3d56"/>
  </g>
</svg>
