<svg xmlns="http://www.w3.org/2000/svg" width="168.679" height="271" viewBox="0 0 168.679 271">
  <g id="undraw_handcrafts_leaf" transform="translate(0 0)">
    <path id="Path_85" data-name="Path 85" d="M509.533,397.426a68.375,68.375,0,0,1,10-99.929A123.292,123.292,0,0,0,561.2,240.671C561.2,300.187,540.088,359.489,509.533,397.426Z" transform="translate(-472.202 -222.037)" fill="#9cec5b"/>
    <path id="Path_86" data-name="Path 86" d="M585.341,268.374c-2.775-10.636-6.2-21.264-11.487-30.935a67.049,67.049,0,0,0-16.764-19.015c-.463-.323-.944-.62-1.427-.911A29.755,29.755,0,0,1,559,221.1c6.737,8.826,11.142,17.278,13.731,27.589,4.649,17.69,6.668,30.57,5.861,49.19q-.064,2.436-.2,4.825c-22.753,5.694-42,19.517-57.324,37,18.4-12.79,37.066-25.366,56.979-35.7l.267-.137c-1.468,23.985-7.941,44.772-20.714,66.249-11.768,19.8-31.134,38.81-49.44,33.729a141.486,141.486,0,0,1,.9-23.435c1.206-13,5.722-34.273,12.386-50.072,4.674-12.036,8.641-20.079,15.833-35.1,7.043-14.772,13.83-29.674,21.455-44.16,2.589-4.385-3.069,3.568-4,4.7-10.687,14.467-20.1,29.823-29.107,45.378a187.552,187.552,0,0,0-13.675,28.3,99.531,99.531,0,0,0-10.134-7.815,120.657,120.657,0,0,0-22.111-9.831c-.364-.117-.73-.231-1.093-.346,3.716,2.7,7.413,5.431,11.26,7.942,6.927,4.362,13.943,8.626,21.173,12.479a196.694,196.694,0,0,0-12.135,67.7,62.191,62.191,0,0,1-18.236-19.007c-8.465-14.888-10.959-40.392-7.291-57.572,2.848-13.617,6.417-21.2,12.111-32.424,9.278-17.795,18.249-29.308,31.094-43.318a224.6,224.6,0,0,1,22.986-21.79c4.3-3.309,12.582-8.707,18.492-12.482-7,3.026-14.1,5.9-20.749,9.664a166.812,166.812,0,0,0-21.488,15.4c-15.307,12.606-28.436,27.913-37.373,45.681-9.98,18.267-17.03,38.734-15.921,59.785,1.128,28.392,8.944,50.106,34.083,65.552,1.019.553,2.034,1.049,3.045,1.5,3.407,27.793,14.622,54.866,36.205,73.421-13.765-17.536-21.119-35.644-24.968-57.391-.821-4.448-1.495-8.829-1.987-13.245,29.547,4.71,54.377-30.95,65.252-55.6,6.4-14.09,11.082-28.983,12.7-44.415C588.756,298.411,588.719,283.083,585.341,268.374Z" transform="translate(-462.428 -212.99)"/>
    <circle id="Ellipse_43" data-name="Ellipse 43" cx="6.059" cy="6.059" r="6.059" transform="translate(13.849 16.163)"/>
    <circle id="Ellipse_44" data-name="Ellipse 44" cx="5.385" cy="5.385" r="5.385" transform="translate(157.908 97.617)"/>
    <circle id="Ellipse_45" data-name="Ellipse 45" cx="5.385" cy="5.385" r="5.385" transform="translate(87.224 214.749)"/>
  </g>
</svg>
