<svg xmlns="http://www.w3.org/2000/svg" width="284.187" height="228.561" viewBox="0 0 284.187 228.561">
  <g id="undraw_handcrafts_tree" transform="translate(0 0.003)">
    <path id="Path_17" data-name="Path 17" d="M1028.683,122.869l-17.58,28.753c-4.264,6.975.619,14.361,6.763,11.641s11.046-11.595,12.139-18.995S1029.342,130.626,1028.683,122.869Z" transform="translate(-760.309 -97.322)" fill="#9cec5b"/>
    <path id="Path_18" data-name="Path 18" d="M766.68,658.691,764.14,692.3c-.616,8.152,7.1,12.5,11.326,7.278s4.546-15.355,2.145-22.44S770.8,665.3,766.68,658.691Z" transform="translate(-584.336 -481.571)" fill="#9cec5b"/>
    <path id="Path_19" data-name="Path 19" d="M212.737,95.914l-1.548,33.114c-.376,8.032,11.672,12.07,17.751,6.807s5.863-15.234,1.719-22.125S219.469,102.28,212.737,95.914Z" transform="translate(-187.822 -77.992)" fill="#9cec5b"/>
    <path id="Path_20" data-name="Path 20" d="M420.01,610.48l-13.4,17.2c-3.251,4.172.68,10.218,5.463,9.367s8.508-6.25,9.266-11.271S420.631,616.055,420.01,610.48Z" transform="translate(-327.114 -446.998)" fill="#9cec5b"/>
    <path id="Path_21" data-name="Path 21" d="M541.4,52.5,539.856,85.61c-.376,8.032,11.672,12.07,17.751,6.807s5.863-15.234,1.719-22.125S548.136,58.862,541.4,52.5Z" transform="translate(-423.516 -46.856)" fill="#9cec5b"/>
    <path id="Path_22" data-name="Path 22" d="M698.041,317.24l-1.549,33.114c-.376,8.032,11.672,12.07,17.751,6.807s5.863-15.234,1.719-22.125S704.773,323.606,698.041,317.24Z" transform="translate(-535.843 -236.709)" fill="#9cec5b"/>
    <path id="Path_23" data-name="Path 23" d="M433.979,253.81l21.555,25.907c5.229,6.284,13.795,4.042,13.2-2.651s-7.417-14.193-14.07-17.612S441.534,255.687,433.979,253.81Z" transform="translate(-347.596 -191.222)" fill="#9cec5b"/>
    <path id="Path_24" data-name="Path 24" d="M361.092,118.731c-1.65,1.34-3.666,1.974-5.973,2.77-3.121,1-6.276,1.9-9.389,2.93a53.08,53.08,0,0,0-7.241,2.471,22.162,22.162,0,0,0-3.156,2.131,36.293,36.293,0,0,0,1.131-3.588,54.055,54.055,0,0,0,1.317-11.783,53.543,53.543,0,0,0-1.175-10.1c-.033-.165-.068-.329-.1-.493a35.4,35.4,0,0,0,.9-6.406,52.56,52.56,0,0,0-.332-7.182A47.51,47.51,0,0,0,334.509,77.5a82.782,82.782,0,0,0-3.8-9.3q-.389-.772-.806-1.531c.217.988.428,1.979.625,2.971,1.35,6.963,2.839,13.9,4.145,20.87.584,2.9,1.211,5.913,1.477,8.354.055.5.183,2.419.261,3.752-.249-1.184-.523-2.363-.853-3.527,0,.822,0,1.644-.017,2.466-.569-.529-1.138-1.059-1.655-1.639a19.619,19.619,0,0,1-1.49-2.177,40.676,40.676,0,0,1-3.963-10.055,77.73,77.73,0,0,1-2.375-11.511c-.252-2.686-.893-10.159-1.55-14.405-.394-2.757-.7-5.042-.977-8.135.233.158.291.231.506.378,1.135.746,3.079,3.635,4.58,6.454q2.443,4.419,4.723,8.925a49.764,49.764,0,0,1,3.379,8.843,53.382,53.382,0,0,1,1.447,7.5l-.056-.417a75.173,75.173,0,0,1,.618,13,17.1,17.1,0,0,1-.417,3.634,9.807,9.807,0,0,1-1.074,2.7c2.562-2.516,3.141-6.242,3.742-9.629a36.51,36.51,0,0,0,.131-10.776,48.535,48.535,0,0,0-1.535-7.462,66.988,66.988,0,0,0-5.859-13.478c-1.151-2.147-2.316-4.288-3.556-6.385a16.9,16.9,0,0,0-5.93-6.413c-1.315-.716-3.323-1.126-3.872.718a20.4,20.4,0,0,0,.211,4.276c.421,3.911.869,6.557,1.25,9.674.491,3.814.748,7.669,1.218,11.489a1.616,1.616,0,0,0-2.169-.567,1.677,1.677,0,0,0-.574.543q-.591.732-1.189,1.458a43,43,0,0,0-3.526,4.56,23.667,23.667,0,0,0-2.633,6.51c-.929,3.9-.722,7.949-.961,11.926a32.226,32.226,0,0,1-1.061,5.229c-.2-.163-.4-.328-.608-.5a17.8,17.8,0,0,1-5.408-7.41q-.369-.936-.69-1.89a21.487,21.487,0,0,1-1.082-5.1A32.321,32.321,0,0,1,303.3,85.2c.113,0,.226-.013.339-.025q.041.391.092.781c.025-.268.059-.538.09-.807a3.7,3.7,0,0,0,1.737-.736,16.393,16.393,0,0,0,3.249-3.22c4.829-5.828,5.262-13.786,5.113-21.035,0-6.758-.621-13.486-1.229-20.209.023-1.474-1.455-2.517-2.67-1.411a2.568,2.568,0,0,0-.533,1.057c-.206.628-.431,1.249-.65,1.872-1.207,3.352-2.412,6.283-3.461,8.7-1.841,4.279-4.3,9.384-4.571,12.434a36.611,36.611,0,0,0-.127,8.055,20.679,20.679,0,0,0,2.826,9.505c-.008.171-.013.342-.018.513-.535,1.42-1.059,2.852-1.507,4.305-.082,0-.164-.011-.246-.022q.112.044.227.08a28.823,28.823,0,0,0-1.191,5.579,20.263,20.263,0,0,0,4.518,14.615,27.989,27.989,0,0,0,5.078,4.645c1.866,1.418,3.725,2.846,5.611,4.238a29.424,29.424,0,0,1,5.158,4.573l.026.033c.012.018.037.054.086.124a32.383,32.383,0,0,1,1.816,2.972l.318.569c-.7-.048-1.384-.092-2.056-.143l-.073-.351a7.454,7.454,0,0,0-.67-1.99,20.374,20.374,0,0,0-3.711-4.344,47.34,47.34,0,0,0-6.364-5.075c-2.037-1.284-4.218-2.314-6.366-3.394-4.146-2.073-8.276-4.379-12.826-5.428-1.1-.174-2.322-.65-3.4-.163a1.41,1.41,0,0,0-.538,1.946,3.227,3.227,0,0,0,.742.743c-.027-.007.509.452.677.585,1.564,1.234,3.093,2.511,4.609,3.8a160.748,160.748,0,0,0,12.977,10.193,24.058,24.058,0,0,0,10.886,4.3,33.289,33.289,0,0,0,6.223-.471,33.484,33.484,0,0,1,2.752,5.957,48.884,48.884,0,0,1,1.779,8.864,39.879,39.879,0,0,1-3.261,4.8,38.43,38.43,0,0,1-5.713,5.567,43.562,43.562,0,0,1-13.85,7.583c-2.141.753-4.188,1.378-6.195,1.9a36.759,36.759,0,0,1,1.92-6.093c.832-1.341,1.9-2.521,2.781-3.826.2-.289.4-.583.594-.88,3.741-.41,6.66-1.712,8.741-5.038.09-.137.172-.278.256-.418-.271.2-.542.4-.818.6a43.713,43.713,0,0,1-8.063,4.675,16.478,16.478,0,0,0,1.813-3.7,29.481,29.481,0,0,0,3.434-2.644,17.422,17.422,0,0,0,3.321-5.789,9.067,9.067,0,0,0,.277-1.106c2.035,3.45,2.526,6.385.255,9.75a18.663,18.663,0,0,1-5.634,5.6,9.388,9.388,0,0,1-2.256,1.006,11.522,11.522,0,0,0,5.037-1.437c3.128-1.925,6.37-4.758,7.063-8.536.611-3.707-1.328-7.286-3.658-10.033a9.071,9.071,0,0,0-1.285-1.363,1.523,1.523,0,0,0-1.045-.484,1.287,1.287,0,0,0-1.276,1.285,10.541,10.541,0,0,1,.517,3.617,18.4,18.4,0,0,1-1.889,6.41,19.049,19.049,0,0,1-2.7,3.167c.04-.146.084-.291.118-.439a11.444,11.444,0,0,0-2.327-9.97c-.132-.156-.273-.3-.412-.454a20.088,20.088,0,0,0-1.8-5.772,16.006,16.006,0,0,0,.957,4.926c-.037-.035-.072-.072-.11-.107.081.152.157.3.23.437a21.424,21.424,0,0,0,.9,2.055c0-.024-.005-.048-.007-.072l0,.005a10.618,10.618,0,0,1,.689,4.937,15.148,15.148,0,0,1-.779,3.708c-.6,1.765-2.76,5.317-4.131,7.968a7.068,7.068,0,0,0-.623,1.654l-.319-.178a17.758,17.758,0,0,0-3.481-8.449,21.651,21.651,0,0,0,1.03,3.883,28.939,28.939,0,0,0,2.135,4.389,14.038,14.038,0,0,1-4.085-3.12l-.088-.12a10.441,10.441,0,0,1-1.229-2.288,32.719,32.719,0,0,1-1.514-6.79c-.166-1.245-.493-3.3-.785-5.079.431.434.9.91,1.422,1.412,2.262,2.371,4.213,3.834,5.571,6.379a23.191,23.191,0,0,1,1.6,5.831c.023.174.042.348.059.522a15.941,15.941,0,0,0,.2-2.017c.244-4.929-.961-7.266-3.986-11.01-.933-1.192-1.888-2.369-2.913-3.484a8.485,8.485,0,0,0-3.376-2.585c-.053-.014-.105-.022-.158-.031,2.373-2.286,3.754-5.392,4.824-8.464.184-.551.376-1.1.56-1.655a29.291,29.291,0,0,0,1.679,6.759c1.157,3.473,4.391,5.481,7.256,7.449-1.593-1.963-3.136-3.39-4.237-5.339a9.123,9.123,0,0,1-1.169-3.379,40.186,40.186,0,0,1-.7-5.223q-.046-.648-.089-1.3a39.3,39.3,0,0,1,5.722,5.489c1.457,2.108,1.672,3.719,1.468,6.491a17.083,17.083,0,0,1-.3,1.947,13.073,13.073,0,0,0,1.53-4.886c.31-2.9-1.214-5.563-3.036-7.7a22.38,22.38,0,0,0-3.593-3.654,7.853,7.853,0,0,0-2.512-1.53,1.926,1.926,0,0,0-.987,0c-.027-1.583-.7-3.225-2.469-3.332a4.821,4.821,0,0,0-2.115.583c-1.347.582-1.067.47-1.867.8-3.01,1.15-6.06,2.224-9.17,3.071a112.43,112.43,0,0,1-13.151,2.244c-3.352.246-5.088.092-7.836.631a27.69,27.69,0,0,0-6.456,2.521c-2.076,1.114-4.406,2.186-5.747,4.2,2.116-5.359,3.733-5.361,11.192-8.014,6.97-2.636,13.891-6.3,18.574-12.255a40.719,40.719,0,0,0,5.96-10.408q.431-1.056.819-2.129c.046.073.091.146.138.218-.037-.1-.071-.2-.108-.3.187-.52.368-1.042.537-1.568q-.345.537-.7,1.066l-.009.013c-1.556-4.457-2.346-8.424-1.685-13.207a66.19,66.19,0,0,1,2.844-9.693c.627-1.552,2.294-5.081,3.608-7.635.983-1.846,2.03-3.657,3-5.512.98-1.9,1.878-3.841,2.735-5.8a51.727,51.727,0,0,1,.9,8.21,87.255,87.255,0,0,1-.022,9.143,49.436,49.436,0,0,1-1.717,11.382,30.865,30.865,0,0,1-1.839,5.343,25.22,25.22,0,0,1-2.461,3.78l.028-.038a15.008,15.008,0,0,1-1.932,2.075,13.8,13.8,0,0,1-2.094,1.514l-.146.089.164-.047a12.834,12.834,0,0,0,2.148-.811,18.07,18.07,0,0,0,5.838-4.946,27.324,27.324,0,0,0,4.464-11.3,80.65,80.65,0,0,0,.817-11.547,80.444,80.444,0,0,0-.714-11.256,20.865,20.865,0,0,0-1.848-6.822,1.587,1.587,0,0,0-2.905.374q-.255.617-.515,1.232-.348.824-.7,1.645c-.53,1.242-1.094,2.468-1.671,3.689-1.745,3.733-3.905,7.255-5.6,11.013-2.214,4.593-4.725,10.691-4.845,16.939a22.43,22.43,0,0,0,1.206,6.665,28.434,28.434,0,0,0,2.831,5.688,92.137,92.137,0,0,1-6.449,8.6,44.168,44.168,0,0,0-.1-7.645c-.477-4.307-1.434-8.673-3.781-12.375a62.656,62.656,0,0,0-4.679-6.411c-.458-.542-.906-1.095-1.415-1.59l-.04-.047c-.786-.963-2.149-1.615-3-.335-.363.593-.079,1.291-.041,1.932.125,1.033.246,2.067.34,3.1a56.955,56.955,0,0,1,.126,8.319,40.734,40.734,0,0,0,.314,9.753,13.318,13.318,0,0,0,1.8,5.475,6.035,6.035,0,0,0,5.012,2.9,12.984,12.984,0,0,0,2.738-.107,54.633,54.633,0,0,1-5.2,4.668,48.461,48.461,0,0,1-7.751,4.627c-3.718,1.8-4.188,1.8-7.613,3.359a16.208,16.208,0,0,0-5.03,3.183c-2.285,2.588-2.46,6.2-2.87,9.48a6.2,6.2,0,0,1-.549-4.095,33.372,33.372,0,0,1,2.48-6.7c1.227-2.589,2.945-6.521,3.532-8.061a66.137,66.137,0,0,0,3.6-10.2,47.027,47.027,0,0,0,1.176-6.079,29.129,29.129,0,0,0-.06-6.17c-.361-2.882-.891-5.905-2.565-8.342a13.14,13.14,0,0,0-1.447-1.626c2.9-1.626,4.063-5.4,4.7-8.467a36.563,36.563,0,0,0,.446-11.811,38.135,38.135,0,0,0-1.865-8.848c-1.042-3.278-2.416-6.436-3.722-9.615-.521-1.25-1.145-2.659-1.251-2.9a4.265,4.265,0,0,0-1.295-1.86,1.654,1.654,0,0,0-2.016.245,3.158,3.158,0,0,0-.611,1.242c-.318.933-.593,1.879-.905,2.814-.7,2.045-1.54,4.036-2.363,6.032-.81,2.059-3.274,6.932-3.57,10.585a20.367,20.367,0,0,0,.875,8.509,33.891,33.891,0,0,0,3.827,8.086c1.861,2.67,4.64,4.491,7.122,6.531a65.207,65.207,0,0,1-4.933-6.6,25.292,25.292,0,0,1-1.841-4.566c-1.791-5.613-2.807-9.411-1.442-14.111a54.594,54.594,0,0,1,2.455-6.309c1.014-2.357,1.979-4.734,2.831-7.152.094.224.189.454.285.685-.111.576-.208,1.154-.3,1.733-.437,2.957-.694,5.939-.9,8.919a57.78,57.78,0,0,0,.1,10.668,51.267,51.267,0,0,0,1.855,9.021c.575,2.251,1.217,4.485,1.992,6.676-.2-.182-.406-.362-.616-.535q.126.176.248.354c.185.265.35.52.507.77a3.116,3.116,0,0,1-.267.176,3.04,3.04,0,0,0,.314-.1c1.731,2.8,1.816,4.785,1.911,8.077A46.417,46.417,0,0,1,251.55,97.38l-.272-.189c-.02-.35-.042-.7-.09-1.048a18.476,18.476,0,0,0-1.1-3.793c-1.924-5.38-6.29-9.558-11.206-12.292a29.5,29.5,0,0,0-5.164-2.413,16.888,16.888,0,0,0-5.7-.61,4.015,4.015,0,0,0-2.409.892,2.367,2.367,0,0,0-.544,2.278c.487,1.207,1.644,1.972,2.48,2.929a47.578,47.578,0,0,0,8.845,7.3A70.25,70.25,0,0,0,247.63,95.97c.778.6,1.546,1.242,2.455,2.006-.3-.488-.593-.944-.891-1.374q.944.378,1.888.751c.068.219.135.439.2.657.02.043.027.106.071.128-.235.908-.495,1.878-.782,2.935-1.769,5.391-3.918,10.648-5.743,16.019-.214.712-.444,1.44-.653,2.179a43.992,43.992,0,0,0-1.038-4.663c-2.414-8.195-9.692-15.7-17.994-17.929a17.045,17.045,0,0,0-12.357.681c-1.853.7-4.356,2.486-3.257,4.732a13.429,13.429,0,0,0,2.293,2.469c1.992,1.974,3.923,4.009,5.969,5.928a63.5,63.5,0,0,0,7.96,6.637c1.432,1.043,2.83,2.139,4.342,3.065a51.435,51.435,0,0,0,13.4,5.514c.036.05.073.1.107.151q.214.48.422.952c.114.532.232,1.064.358,1.593q.012-.359.026-.718c1.52,3.473,2.8,6.571,3.872,9.137.529,1.344,2.877,6.558,3.641,8.312a86.023,86.023,0,0,1,2.7,8.337c1.768,6.826,2.743,11.587.839,17.949-1.382,4.953-3.854,9-7.107,13.788a108.2,108.2,0,0,1-10.639,13.354q-1.22,1.261-2.493,2.47c-.774-1.736-1.444-3.392-2.166-5.253a54.114,54.114,0,0,1-1.962-5.463c-1.365-5.052-2.33-10.218-4.1-15.154a54.193,54.193,0,0,0-12.664-19.493,57.584,57.584,0,0,0-6.666-5.144,40.006,40.006,0,0,0-4.822-2.407,33.72,33.72,0,0,0,2.731-4.96,31.248,31.248,0,0,0,2.294-8.88,34.2,34.2,0,0,0-.922-10.342,34.683,34.683,0,0,0-2.833-7.221c.39.17.779.375,1.441.691,1.756.947,3.487,1.944,5.156,3.038a16.248,16.248,0,0,1,4.328,3.977l-.231-.3a18.31,18.31,0,0,1,2.495,4.151,25.459,25.459,0,0,1,1.623,5.516,19.277,19.277,0,0,1-.808,7.864,19.838,19.838,0,0,1-3.176,6.563,21.566,21.566,0,0,1-3.564,3.629c-.072.076-.384.278-.137.154a21.055,21.055,0,0,0,3.567-2.007,18.379,18.379,0,0,0,7.168-16.588,19.949,19.949,0,0,0-1.253-4.776,20.779,20.779,0,0,0-4.083-6.852c-2.591-3-6.147-4.9-9.6-6.738-1.542-.7-4.317-2.188-5.935-1.419a1.581,1.581,0,0,0-.743,1.779c.928,2.32,2.507,4.908,3.362,7.758a34.927,34.927,0,0,1,1.515,9.652,35.417,35.417,0,0,1-2.681,15.184c-3.462-1.532-5.243-2.1-8.306-3.589-4.256-2.211-8.424-4.613-12.456-7.21-1.024-.677-1.964-1.307-2.854-1.919a9.325,9.325,0,0,0,2.5-.522c4.519-1.474,7.749-5.5,9.308-9.867a20.459,20.459,0,0,0,.715-9.81,30.613,30.613,0,0,0-2.684-8.81,46.972,46.972,0,0,0-7.271-10.12c-1.2-1.177-3.671-4.054-5.43-3.675a1.419,1.419,0,0,0-1.026,1.461,2.782,2.782,0,0,0,.277,1c.024.06.048.117.069.168.325.831.614,1.676.889,2.524a32.276,32.276,0,0,1,1.315,5.97,26.648,26.648,0,0,1-3.722,15.732,35.311,35.311,0,0,1-2.732,4.152c-.7.874-1.727,2.006-2.668,3.045a41.613,41.613,0,0,1-5.084-7.008,27.639,27.639,0,0,1-2.837-6.444,42.027,42.027,0,0,1-1.59-6.7c-.081-.916-.146-1.834-.18-2.753-.071-2.352.022-4.708.138-7.057.209-3.173.584-6.333.92-9.494.238-2.4.592-4.344,1-7.105a57.262,57.262,0,0,0-3.407,9.649,46.113,46.113,0,0,0-1.743,12.509c-.491-.567-.977-1.139-1.441-1.728-1.4-1.841-3.487-4.787-4.966-7.151a41.348,41.348,0,0,1-2.89-4.982,28.174,28.174,0,0,1-1.267-3.782,27.817,27.817,0,0,1-.567-3.163c-.422-4.461.436-7.124.9-11.418.469-3.55.866-7.11,1.169-10.678a59.39,59.39,0,0,0,.364-8.222,25.584,25.584,0,0,0-.672-4.788c.073,0,.147,0,.22.011a4.756,4.756,0,0,1,.521.117c2.528.885,5.292,3.456,7.964,6.3a58.069,58.069,0,0,1,7.677,9.916,29.72,29.72,0,0,1,4.242,11.274,33.329,33.329,0,0,1,.314,8.907,41.851,41.851,0,0,1-.678,4.809,35,35,0,0,1-1.485,4.165,28.787,28.787,0,0,1-2.068,3.821,17.73,17.73,0,0,1-3.139,3.815q-.435.378-.894.726c.229-.093.458-.19.682-.295a15.647,15.647,0,0,0,4.595-3.433,23.616,23.616,0,0,0,4.6-6.925,21.275,21.275,0,0,0,1.412-5.893,36.569,36.569,0,0,0-1.456-14.806,43.77,43.77,0,0,0-8.829-14.65c-3.112-3.485-8.78-9.939-13.537-10.436-2.351-.071-3.173,1.562-2.825,2.686.17.923.332,1.849.466,2.778a37.7,37.7,0,0,1,.036,7.826c-.483,7.555-1.541,14.612-2.218,20.471a24.934,24.934,0,0,0,2.736,13.126,52.077,52.077,0,0,0,7.727,9.528,36.9,36.9,0,0,0,3.324,2.9c.027,1.306.111,2.611.26,3.912a42.641,42.641,0,0,0,3.489,11.94,46,46,0,0,0,7.327,10.545c.129.136.262.268.394.4a73.153,73.153,0,0,0-13.7-5.842,85.371,85.371,0,0,0-15.913-4.039c-1.747-.225-3.492-.493-5.247-.661-1.182,0-2.986-.529-3.584.827-.443.989.3,1.767,1.049,2.323.506.415.993.851,1.483,1.285,1.777,1.577,3.521,3.191,5.265,4.8a60,60,0,0,0,10.17,7.874,44.185,44.185,0,0,0,11.766,4.592c6.449,1.487,10.635.449,16.374-2.638-6.391,1.532-9.6,1.837-15.781-.127a55.746,55.746,0,0,1-9.5-3.679,43.243,43.243,0,0,1-7.223-4.862c-2.889-2.424-5.595-5.057-8.44-7.531.487.063.974.13,1.461.193l-.358-.048a70.975,70.975,0,0,1,9.553,1.82c8.7,2.409,18.255,6.258,25.977,9.315.507.22,1.015.447,1.517.687q.593.472,1.189.938a129.77,129.77,0,0,0,19.344,12.106c3.2,1.563,6.178,2.627,8.528,3.693,1.367.6,2.731,1.217,4.045,1.929a39.412,39.412,0,0,1,3.7,2.492,35.841,35.841,0,0,1,5.327,4.75,50.749,50.749,0,0,1,6.27,8.092,71.8,71.8,0,0,1,3.738,7.318c1.868,4.6,2.607,9.556,4.321,14.207a33.364,33.364,0,0,0,3.181,6.576c1.021,1.753,2.117,3.463,3.306,5.107q-3.184,3.015-6.638,5.729c-2.337,1.857-7,5.228-10.049,8.085a67.32,67.32,0,0,0-7.471,8.309,17.118,17.118,0,0,0-2.627,5.114,31.245,31.245,0,0,0,.423,18.133A28.136,28.136,0,0,0,211.672,253a25.243,25.243,0,0,0,3.476,3.842c-.725-.154-1.455-.29-2.19-.4a34.657,34.657,0,0,0-13.041.66,55.568,55.568,0,0,1,12.586,1.634,82.482,82.482,0,0,0,11.545,1.6c.912.046,1.825,0,2.737.033q-.65-.241-1.31-.45c-3.218-1.074-6.436-2.2-9.746-2.951a26.876,26.876,0,0,1-3.163-5.65,44.788,44.788,0,0,1-2.448-13.034c-.2-5.027.035-8.793,2.485-12.76a52.267,52.267,0,0,1,9.128-9.981c5.849-4.8,11.475-8.386,17.4-14.484a111.81,111.81,0,0,0,10.2-12.384c3.343-4.588,6.88-10.1,8.357-14.4a32.553,32.553,0,0,0,1.167-3.851c2.521-2.7,4.79-5.133,8.064-6.562,2.094-1.052,6.7-1.661,10.592-1.719,1.615-.035,3.233-.029,4.85-.038a158.379,158.379,0,0,0-1.042,39.122c-.3-.109-.595-.218-.893-.324.3.218.614.429.922.641,0,.027,0,.055.008.082.016.168.032.337.047.505l.049-.515c1.039.712,2.1,1.4,3.162,2.069.594.394,1.2.778,1.8,1.16l.015.008c.007.062.014.123.021.185,0-.056.01-.111.014-.166a.654.654,0,0,0,.9-.758.917.917,0,0,0-.482-.515c-.1-.069-.194-.135-.292-.2.59-6.579,1.413-13.141,1.577-19.752.338-7.24.009-14.481-.158-21.72.776-.057,1.551-.129,2.325-.229a66.157,66.157,0,0,0,25.05-7.557,43.608,43.608,0,0,0,6.5-4.7,42.575,42.575,0,0,0,3.749-3.462,45.766,45.766,0,0,0,7.835-12.379c.609-1.419,1.213-2.844,1.754-4.292a24.3,24.3,0,0,1,4.4-1.719c2.987-.658,6.06-.886,9-1.756,4-1.121,11.435-3.663,13.38-7.5a5.993,5.993,0,0,0,.424-1.19A6.064,6.064,0,0,1,361.092,118.731ZM302.783,67.268a32.591,32.591,0,0,1,1.568-7.594c.863-2.421,2.418-5.494,3.843-8.687.582-1.289,1.354-3.047,2.079-4.789.4,4.667.522,9.355.538,14.039a53.612,53.612,0,0,1-.955,12.389A24.206,24.206,0,0,1,305.142,83.5a3.653,3.653,0,0,1-1.259,1.084,74.956,74.956,0,0,1,2.224-10.256c.591-2.193,1.369-4.332,1.857-6.553a67.84,67.84,0,0,0,1.009-13.051c0-.261,0-.522,0-.783-.012.056-.025.111-.037.167-.737,3.228-1.382,6.477-2.092,9.711-.6,3.014-1.665,5.9-2.351,8.9a47.243,47.243,0,0,0-.987,7.443C302.008,76.024,302.331,71.56,302.783,67.268Zm.716,16.045q.031.7.1,1.4c-.082.031-.166.061-.253.087Q303.419,84.053,303.5,83.313Zm13.972,38.437a28.088,28.088,0,0,1-9.311-4.872c-3.7-2.723-6.01-4.5-9.587-7.507-1.687-1.408-3.336-2.863-5.017-4.279a83.249,83.249,0,0,1,9.759,4.679c2.241,1.178,4.53,2.265,6.747,3.486a75.361,75.361,0,0,1,8.636,5.6A7.573,7.573,0,0,1,321.2,122l.112.242a28.977,28.977,0,0,1-3.839-.492ZM268.113,98.988c-1.03-1.823-1.041-3.261-1.271-5.6-.54-5.148.266-10.307-.009-15.46-.04-.866-.109-1.73-.189-2.593.238.293.462.575.647.818a38.811,38.811,0,0,1,4.27,6.519c1.4,2.641,3.044,8.35,4.013,13.2a37.71,37.71,0,0,1,.671,3.844c-.372.425-.753.845-1.139,1.262-.79-3.39-1.781-6.731-2.693-10.09-1.014-3.123-2.131-6.981-3.094-9.738-.044,7.791,2.044,13.3,5.676,19.946-.219.236-.438.472-.662.705-2.745-.35-5.318-.89-6.22-2.807Zm-16.936-23.1c-.194-2.329-.311-4.664-.449-7-.163-2.022-.384-4.041-.487-6.067-.26-7.441-.669-14.879-1.6-22.269-.045-.456-.093-.913-.138-1.37.3.729.6,1.468.874,2.147a64.274,64.274,0,0,1,3.779,11.521,82.5,82.5,0,0,1,1.019,11.5c-.033,3.163.01,5.719-.768,8.388a7.732,7.732,0,0,1-1.737,3.266c-.059.058-.124.109-.186.163C251.381,76.074,251.278,75.983,251.177,75.89Zm-3.262,19.034c-2.693-3.2-5.623-4.758-9.54-7.5a18.914,18.914,0,0,1-2.608-2.435q-.64-.7-1.259-1.421c.094.234.189.468.287.7a19.1,19.1,0,0,0,1.1,2.242c-.983-.769-2.03-1.617-3.206-2.629-1.432-1.267-2.758-2.646-4.1-4.008.178,0,.428,0,.846-.01,3.276.018,5.69,1.185,9.284,3.262a30.375,30.375,0,0,1,5.246,3.794,22.735,22.735,0,0,1,4.218,4.692,26.234,26.234,0,0,1,2.27,3.96l-.023-.055c.108.239.075.187.2.5s.223.635.324.956C249.955,96.279,248.937,95.6,247.915,94.923Zm3.411,3.015c-.014-.167-.024-.334-.034-.5l.222.088q-.073.29-.15.587c-.036-.025-.03-.134-.038-.174Zm-19.355,20.179c-.219-.141-2.547-2.045-3.693-2.994-1.057-.842-2.168-1.612-3.236-2.439-2.955-2.149-8.646-8.076-12.367-11.7a5.752,5.752,0,0,1,.784-.459,15.893,15.893,0,0,1,1.919-.839A11.67,11.67,0,0,1,219.659,99a15.408,15.408,0,0,1,4.911.808,20.3,20.3,0,0,1,8.209,4.606,25.751,25.751,0,0,1,5.342,6.378,33.856,33.856,0,0,1,3.19,6.456,41.027,41.027,0,0,1,1.591,4.636c.195.695.36,1.4.518,2.1a59.814,59.814,0,0,0-5.987-10.4,41.749,41.749,0,0,0-7.95-6.8,53.9,53.9,0,0,0-7.92-4.027,25.649,25.649,0,0,0-4.009-1.239c-.218-.07.1.081.159.128a42.843,42.843,0,0,1,5.224,3.476,82.124,82.124,0,0,1,8.146,6.282c1.473,1.316,3.086,2.47,4.5,3.854,2.813,3.022,5.422,6.228,7.986,9.462a7.334,7.334,0,0,0,.234,1.055,116.545,116.545,0,0,1-11.83-7.653Zm11.758,7.748a.767.767,0,0,0-.134-.134l.211.056c.01.034.017.068.028.1v0l.032.15-.137-.176Zm-67.085,7.776c-1.025-.751-2.006-1.511-3-2.326,3.916-3,7.945-6.478,9.288-11.4a17.25,17.25,0,0,0,.364-7.275q-.107-.623-.258-1.237c-.089.814-.2,1.523-.349,2.372a31.247,31.247,0,0,1-2.418,7.5,56.585,56.585,0,0,1-6.715,9.968c-1.181-.973-2.379-2.027-3.687-3.253-.458-.471-.873-.912-1.261-1.336a39.83,39.83,0,0,0,4.141-3.619,28.812,28.812,0,0,0,6.5-10.413,24.84,24.84,0,0,0-.138-15.018c.319.356.642.722.969,1.081a38.324,38.324,0,0,1,3.818,5.183,35.475,35.475,0,0,1,2.558,4.561,34.662,34.662,0,0,1,2.127,8.335l-.056-.415c.057.537.1,1.076.1,1.617a19.9,19.9,0,0,1-.2,3.209,15.254,15.254,0,0,1-2.625,6.582,12.789,12.789,0,0,1-7.169,5.717A6.025,6.025,0,0,1,176.644,133.642Zm68.826-6.017c.113-.343.222-.669.329-.985-.088.376-.172.754-.264,1.128C245.514,127.72,245.49,127.671,245.47,127.625ZM285.9,183.686c-.164,4.461-.248,8.943-.073,13.41v0a.148.148,0,0,0-.112-.027s0,0-.008,0c-.126,0-.252.011-.378.019a.051.051,0,0,1,0-.057.094.094,0,0,0-.034.059h-.012c-.115-.315-.915.158-1.133.225.255-.015.506-.066.759-.093a.1.1,0,0,0,.011.051.12.12,0,0,0,.112.075,4.136,4.136,0,0,0,.651-.1.232.232,0,0,0,.151-.062c.08,2,.211,3.991.411,5.979-.633-.407-1.291-.775-1.951-1.138-.12-.087-.24-.174-.363-.257a1.408,1.408,0,0,0-.767-.337.515.515,0,0,0-.476.314q-.6-.232-1.2-.454c0-.042.008-.084.012-.125q.231-2.466.426-4.936c.344-4.4.689-8.81.908-13.223.268-6.964.019-13.936-.165-20.9,1.728-.011,3.455-.045,5.177-.164C286.819,169.148,286.234,176.418,285.9,183.686Zm.4-24.367c-7.03.482-14.819-.742-21,3.379-2.741,1.869-4.662,4.647-6.381,7.443,1.247-5.581.561-10.439-1.019-16.547a77.666,77.666,0,0,0-3.391-10.354,90.219,90.219,0,0,0-4.987-9.17c-1.056-1.742-2.2-3.423-3.4-5.064-.194-.389-.372-.761-.538-1.128a24.35,24.35,0,0,1,1.558-3.123,9.112,9.112,0,0,1,3.873-2.435,47.011,47.011,0,0,1,8.079-2.292c2.116-.242,4.253-.184,6.378-.286a58.084,58.084,0,0,0,7.153-.846c2.877-.467,5.757-.961,8.588-1.663a92.2,92.2,0,0,0,11.234-4.013,6.028,6.028,0,0,1-.038.615c-.045.268-.15.894-.21,1.1s-.114.434-.174.651c-1.576.91-3.226,1.691-4.842,2.529a81.489,81.489,0,0,1-7.72,3.614A39.138,39.138,0,0,1,270,124c-3.47.212-6.943-.252-10.416-.123a42.471,42.471,0,0,0-7.416.977,30.492,30.492,0,0,0-5.863,2.5,35.326,35.326,0,0,1,6.193-1.428,75.827,75.827,0,0,1,12.077.644,30.6,30.6,0,0,0,8.594-.273,25.742,25.742,0,0,0,5.943-1.564c3.636-1.335,7.3-4,9.964-6.086.928-.711,1.845-1.444,2.709-2.232-.251.808-.53,1.608-.8,2.409a21.093,21.093,0,0,1-2.655,5.529,17.764,17.764,0,0,1-6.158,4.971,20.712,20.712,0,0,1-8.514,2.5,51.658,51.658,0,0,1-8.186-.314,56.171,56.171,0,0,1-7.946-1.223c-3.239-.769-6.412-1.807-9.685-2.434q-.523-.1-1.044-.206c.207.1.415.208.624.309,4.19,2,8.213,4.444,12.729,5.661a40.725,40.725,0,0,0,8.074,1.288,35.49,35.49,0,0,0,7.427-.136,20.17,20.17,0,0,0,5.541-1.525,25.571,25.571,0,0,0,5.867-3.288,2.169,2.169,0,0,0,.055.464c.255,1.452.512,2.9.739,4.361.627,3.98,1.291,8.075,3.39,11.584,1.747,2.986,4.658,4.112,7.776,4.917a11.491,11.491,0,0,0-.206,1.827c-.075,1.4-.04,2.8.006,4.2a71.068,71.068,0,0,1-12.511,2.01Zm24.8-52.837a28.012,28.012,0,0,0,2.344-5.367c.927-3.5,1.35-7.123,2.295-10.622,1.2-4.109,2.263-6.344,4.779-9.179l.04-.048a69.368,69.368,0,0,1-1.073,16.283,31.382,31.382,0,0,1-1.476,5.6,15.843,15.843,0,0,1-1.414,2.614,7.256,7.256,0,0,1-1.6,1.741,9.455,9.455,0,0,1-1.471.869c-.84-.636-1.622-1.239-2.427-1.888Zm22.364,17.955a54.272,54.272,0,0,1-5,12.195,36.292,36.292,0,0,0,.056-4.361,25.753,25.753,0,0,0-2.747-11.568,19.288,19.288,0,0,0-2.616-4.407,38.879,38.879,0,0,0-6.327-5.44c-.981-.744-1.836-1.383-2.626-1.978.159-.041.318-.085.474-.135a7.424,7.424,0,0,0,2.931-1.738,15.905,15.905,0,0,0,4.177-7,38.119,38.119,0,0,0,1.847-10.334,75.618,75.618,0,0,0,.1-8.4c.265,1.4.58,2.8.976,4.181a35.541,35.541,0,0,0,5.4,11.592,19.431,19.431,0,0,0,3.194,3.382,19.916,19.916,0,0,0,2.224,1.388c-.035,2.029-.1,4.057-.164,6.085a92.6,92.6,0,0,1-.867,9.908,56.077,56.077,0,0,1-1.035,6.635Z" transform="translate(-128.609 -32.552)"/>
    <path id="Path_25" data-name="Path 25" d="M694.137,223.158l.011-.014C694.151,223.14,694.146,223.147,694.137,223.158Z" transform="translate(-534.16 -169.231)"/>
    <path id="Path_26" data-name="Path 26" d="M685.192,101.444c0-.088,0-.175,0-.263-.156.595-.318,1.188-.479,1.781a47.128,47.128,0,0,1-1.433,4.646c-1.094,3.118-2.46,6.146-3.28,9.355-.937,3.283-1.282,6.686-1.962,10.023-.949,4.133-2.062,8.228-2.757,12.415,1.606-4.317,3.188-7.737,4.732-11.91,1.09-3.191,1.76-6.507,2.559-9.778.68-2.975,1.606-5.894,2.093-8.912A35.451,35.451,0,0,0,685.192,101.444Z" transform="translate(-520.639 -81.769)"/>
    <path id="Path_27" data-name="Path 27" d="M759.625,321.11c-1.739-.971-3.5-1.9-5.327-2.7-.3-.134-.6-.272-.9-.41l.15.141a28.606,28.606,0,0,0,14.48,7.91C765.269,324.337,762.46,322.7,759.625,321.11Z" transform="translate(-576.661 -237.255)"/>
    <path id="Path_28" data-name="Path 28" d="M783.871,263.3a41.154,41.154,0,0,0,3.6-6.634,33.11,33.11,0,0,0,1.8-6.612A43.049,43.049,0,0,0,783.871,263.3Z" transform="translate(-598.511 -188.532)"/>
    <path id="Path_29" data-name="Path 29" d="M961.828,261.855a1.925,1.925,0,0,0-1.994.651c-.513.452-1.009.921-1.54,1.351a27.575,27.575,0,0,1-5.7,3.441c-.156.071-.315.139-.472.208a29.344,29.344,0,0,1-6.195,1.849,32.729,32.729,0,0,1-7.249.584c-2.03.009-4.063-.054-6.089.108-2,.129-3.974.463-5.947.788a71.006,71.006,0,0,1,8.318.645,59.869,59.869,0,0,0,8.595,1,25.371,25.371,0,0,0,5.976-.812,27.788,27.788,0,0,0,10.831-5.607c-.041.325-.107.564-.255,1.316a14.911,14.911,0,0,1-1.043,2.889,10.82,10.82,0,0,1-1.212,2.081c-.223.283-.5.654-1.167,1.434a12.83,12.83,0,0,1-2.853,2.612,21.443,21.443,0,0,1-6.209,2.483,18.12,18.12,0,0,1-4.622.814,30.68,30.68,0,0,1-7.617-.624,94.372,94.372,0,0,1-10.546-2.33,10.7,10.7,0,0,1-4.65-2.078c-.29-.255-.57-.522-.845-.793a38.317,38.317,0,0,0,4.464-1.74,30.8,30.8,0,0,0,7.755-5.742,40.532,40.532,0,0,0,4.843-5.574c.81-1.1,1.582-2.237,2.3-3.4l-.285.266a83.872,83.872,0,0,1-8.513,7.018,47.172,47.172,0,0,1-8.456,5.1,35.457,35.457,0,0,1-7.229,2.221,53.6,53.6,0,0,1-7.2.746,12.075,12.075,0,0,0-4.094.807c-3.065,1.451-4.8,4.54-6.555,7.286a47.371,47.371,0,0,1,4.3-4.183,8.1,8.1,0,0,1,3.606-1.6c2.615-.114,5.225.372,7.844.181a29.488,29.488,0,0,0,7.146-1.357l.06.1c1.5,2.92,4.71,4.137,7.537,5.405a35.309,35.309,0,0,0,7.177,2.481,29.271,29.271,0,0,0,10.3.862,30.032,30.032,0,0,0,5.059-1.094,23.524,23.524,0,0,0,6.566-2.919,21.9,21.9,0,0,0,4.7-4.971,18.807,18.807,0,0,0,2.21-5.016C963.233,266.848,964.184,262.7,961.828,261.855Z" transform="translate(-679.182 -193.803)"/>
    <path id="Path_30" data-name="Path 30" d="M1025.758,267.7a1.132,1.132,0,0,0,0,2.263A1.132,1.132,0,0,0,1025.758,267.7Z" transform="translate(-771.172 -201.187)"/>
    <path id="Path_31" data-name="Path 31" d="M1035.646,130.212a41.8,41.8,0,0,0-2.26-6.182,1.911,1.911,0,0,0-3.068-.792c-1.013,1.261-1.979,2.563-2.931,3.871-1.73,2.4-3.543,4.74-5.091,7.261a53.774,53.774,0,0,0-3.322,6.8,37.194,37.194,0,0,0-2.157,10.808,49.777,49.777,0,0,0,1.106,9.779,87.335,87.335,0,0,1,.891-9.661,61.911,61.911,0,0,1,2.015-7.19,40.334,40.334,0,0,1,3.087-7.055c2.059-3.842,4.837-7.24,7.381-10.766.07.2.16.443.287.767,1.748,5.094,2.668,8.671,2.832,13.5.053,2.429-.348,3.792-1.134,6.709-.261,1.368-2.51,4.9-3.3,5.837a47.322,47.322,0,0,1-6.284,6.264,23.755,23.755,0,0,1-5.136,2.958l-.195.091.287-.05a19.95,19.95,0,0,0,4.605-1.206,27.282,27.282,0,0,0,5.868-3.522,20.491,20.491,0,0,0,6.8-8.408,27.689,27.689,0,0,0,1.645-7.964A42.594,42.594,0,0,0,1035.646,130.212Z" transform="translate(-765.56 -97.221)"/>
    <path id="Path_32" data-name="Path 32" d="M1037.8,163.758c-.9,2.045-1.706,4.307-2.354,5.689-1.027,2.124-2.187,4.181-3.244,6.29-1.094,2.159-2.111,4.356-3.19,6.522a63.749,63.749,0,0,0-3.571,7.736c2.158-2.889,4.895-5.649,6.9-8.815a39.981,39.981,0,0,0,5.051-10.836,58.049,58.049,0,0,0,1.111-7.089c.053-.485.1-.971.142-1.457Q1038.224,162.779,1037.8,163.758Z" transform="translate(-771.747 -125.24)"/>
    <path id="Path_33" data-name="Path 33" d="M607.137,88.3a1.132,1.132,0,0,0,0,2.263A1.132,1.132,0,0,0,607.137,88.3Z" transform="translate(-470.97 -72.528)"/>
    <path id="Path_34" data-name="Path 34" d="M468.646,118.2a1.132,1.132,0,0,0,0,2.263A1.132,1.132,0,0,0,468.646,118.2Z" transform="translate(-371.655 -93.972)"/>
    <path id="Path_35" data-name="Path 35" d="M711.006,244.1a1.132,1.132,0,0,0,0,2.263A1.132,1.132,0,0,0,711.006,244.1Z" transform="translate(-545.457 -184.258)"/>
    <path id="Path_36" data-name="Path 36" d="M990.9,316.248a44.836,44.836,0,0,1-6.466.228c-.722,0-5.346-.769-6.132-.86-2.952-.408-5.444-.58-7.127-.887a73.539,73.539,0,0,0-7.9-1.318c3.139,1.057,5.947,2.726,9.2,3.669a38.936,38.936,0,0,0,12.113,1.578,26.314,26.314,0,0,0,7.356-2.054q.674-.276,1.336-.579C992.491,316.109,991.7,316.18,990.9,316.248Z" transform="translate(-727.166 -233.963)"/>
    <path id="Path_37" data-name="Path 37" d="M1093.428,344.82a1.132,1.132,0,0,0,0,2.263A1.132,1.132,0,0,0,1093.428,344.82Z" transform="translate(-819.699 -256.487)"/>
    <path id="Path_38" data-name="Path 38" d="M586.678,267.7a1.132,1.132,0,0,0,0,2.263A1.132,1.132,0,0,0,586.678,267.7Z" transform="translate(-456.298 -201.187)"/>
    <path id="Path_39" data-name="Path 39" d="M520.58,267.7a1.132,1.132,0,0,0,0,2.263A1.132,1.132,0,0,0,520.58,267.7Z" transform="translate(-408.898 -201.187)"/>
    <path id="Path_40" data-name="Path 40" d="M416.109,379.958a4.292,4.292,0,0,0-.256-.834,13.307,13.307,0,0,1-.185,1.8,54.4,54.4,0,0,1-2.9,9.536c-1.32,3.349-1.761,4.392-3.453,8.135a27.934,27.934,0,0,0,6.255-9.492A17.941,17.941,0,0,0,416.109,379.958Z" transform="translate(-329.908 -281.088)"/>
    <path id="Path_41" data-name="Path 41" d="M212.644,380.077c-4.99-1.057-9.73-1.647-13.7-2.216-.2-.031-.395-.064-.591-.1.372.189.743.377,1.118.561a49.938,49.938,0,0,0,5.7,2.41c5.8,2.131,12.068,2.255,18.133,3.087A48.232,48.232,0,0,0,212.644,380.077Z" transform="translate(-178.623 -280.111)"/>
    <path id="Path_42" data-name="Path 42" d="M290.089,454.6c-1.372.363-2.682.915-4.029,1.355-1.214.394-2.459.68-3.7.973a22.79,22.79,0,0,1-7.562-.062,58.043,58.043,0,0,1-13.471-4.737q-2.606-1.207-5.157-2.527c-.164-.084-.325-.171-.488-.258a38.687,38.687,0,0,1,4.876-.722,62.7,62.7,0,0,1,6.488-.443c3.633.114,7.261.393,10.893.55,3.085.2,6.165.537,9.26.507q2.527-.027,5.054-.1l-.248-.053c-3.839-.8-7.688-1.544-11.519-2.385a71.22,71.22,0,0,0-14.533-1.194c-2.132.112-4.253.36-6.37.627a35.42,35.42,0,0,0-6.829,1.327c-1.218.326-2.039,1.523-1.047,2.6a7.813,7.813,0,0,0,1,.752l-.041-.041a79.2,79.2,0,0,0,9.995,5.106,46.5,46.5,0,0,0,13.6,4.173,17.34,17.34,0,0,0,6.968-.415,27.4,27.4,0,0,0,3.882-1.5c1.237-.606,2.411-1.332,3.663-1.907a49.83,49.83,0,0,1,8.09-2.684,37.2,37.2,0,0,0-8.779,1.069Z" transform="translate(-216.568 -328.679)"/>
    <path id="Path_43" data-name="Path 43" d="M345.846,462.3c-1.254.205-4.973.516-7.694.765-.2.017-.406.032-.609.047q.611.165,1.224.322a23.9,23.9,0,0,0,5.374.807c2.132.063,4.23-.4,6.351-.5a53.6,53.6,0,0,1,5.35.371C352.3,462.387,349.8,461.738,345.846,462.3Z" transform="translate(-278.44 -340.595)"/>
    <path id="Path_44" data-name="Path 44" d="M303.4,115.049a1.132,1.132,0,0,0,0,2.263A1.132,1.132,0,0,0,303.4,115.049Z" transform="translate(-253.154 -91.714)"/>
    <path id="Path_45" data-name="Path 45" d="M218.416,141.8a1.132,1.132,0,0,0,0,2.263A1.132,1.132,0,0,0,218.416,141.8Z" transform="translate(-192.21 -110.9)"/>
    <path id="Path_46" data-name="Path 46" d="M204.252,204.754a1.132,1.132,0,0,0,0,2.263A1.132,1.132,0,0,0,204.252,204.754Z" transform="translate(-182.053 -156.043)"/>
    <path id="Path_47" data-name="Path 47" d="M485.957,458.131a1.132,1.132,0,0,0,0,2.263A1.132,1.132,0,0,0,485.957,458.131Z" transform="translate(-384.069 -337.745)"/>
    <path id="Path_48" data-name="Path 48" d="M333.717,548.434a13.117,13.117,0,0,0-2.1-5.335,41.106,41.106,0,0,0-2.936-4.188,21.282,21.282,0,0,0-2.989-3.179,1.186,1.186,0,0,0-1.772,1.017,2.157,2.157,0,0,0,.284.888c.061.159.209.443.477,1.24a15.307,15.307,0,0,1,.567,2.175c.056.334.062.388.015.033l.049.363a13.574,13.574,0,0,1-1.115,7.262,14.83,14.83,0,0,1-2.2,4.264,18.137,18.137,0,0,1-3.234,3.247c-.549.4-1.609,1.131-2.519,1.758a24.912,24.912,0,0,0,1.084-8.387,9.877,9.877,0,0,0-.6-2.465c2.943-4.8,4.637-9.1,3.831-14.952-.034-.256-.077-.512-.122-.766-.051.456-.1.842-.157,1.233a77.3,77.3,0,0,1-3.659,14.222,10.684,10.684,0,0,0-4.945-5.137l.363-.069-.511-.01a20.07,20.07,0,0,0-2.582-1.147,37.639,37.639,0,0,0-3.294-6.008,41.266,41.266,0,0,0-9.3-10.276c-1.918-1.531-11.509-8.044-12.5-3.588a7.32,7.32,0,0,0,.658,2.688c.638,1.792,1.166,3.053,1.643,4.139a51.057,51.057,0,0,0,2.719,5.593,28.487,28.487,0,0,0,6.8,7.79c4.06,2.853,9.13,2.19,13.82,1.307.037.059.074.117.109.174l.127.2c-.045-.132-.1-.263-.143-.395l.852-.163a15.169,15.169,0,0,1,2.771,2.6,10.025,10.025,0,0,1,1.66,8.225c-.6,3.521-1.761,6.926-2.287,10.46-.009.051-.015.1-.024.152a25.956,25.956,0,0,0-3.379-5.9c-2.329-3.256-7.085-8.133-11.4-7.791-2.046.133-4.142,1.282-3.735,3.63a20.264,20.264,0,0,0,1.743,5.179A14.882,14.882,0,0,0,305.022,567a14.652,14.652,0,0,0,7.413,0,11.082,11.082,0,0,0,1.577,4.822c1.392,2.1,3.674,3.277,5.773,4.547-1.5-1.483-3.147-2.774-4.057-4.309a8.7,8.7,0,0,1-1.317-3.964,17.079,17.079,0,0,1,.824-6.431c.306-1.156.641-2.319.954-3.489a20.748,20.748,0,0,0,7.51-5.049,14.072,14.072,0,0,0,2.025-3.13,19.682,19.682,0,0,0,1.414-3.27,12.948,12.948,0,0,0,.542-4.959,34.508,34.508,0,0,1,2.567,4.317c.053.109.1.214.133.28l.193.5a10.782,10.782,0,0,1,.42,1.649c0,.012,0,.024,0,.036a5.342,5.342,0,0,1-.39,2.81,11.379,11.379,0,0,1-.789,1.9,19.52,19.52,0,0,1-1.854,2.834c-.685.949-2.419,2.881-3.9,4.48-2.082,2.254-4.187,4.9-6.481,6.384a7.105,7.105,0,0,1-2.93,1.221c1.814.355,4.8-1.044,6.592-2.364,1.825-1.325,3.525-2.811,5.222-4.294a23.991,23.991,0,0,0,5.775-6.86C333.161,552.732,334.014,550.611,333.717,548.434Zm-36.225-9.178A30.955,30.955,0,0,1,289.42,528.7a61.989,61.989,0,0,1-3.01-7.213,14.384,14.384,0,0,1,3.9,1.641,42.725,42.725,0,0,1,9.391,7.453,102.365,102.365,0,0,1,7.359,8.126c.251.32.682.895,1.144,1.539-.222-.074-.444-.147-.667-.216.306.181.609.367.91.557.245.347.491.7.718,1.045-4.35-.016-8.427-.076-11.671-2.374Zm11.917,2.375c-.073-.191-.151-.38-.228-.57.269.181.542.373.815.572l-.587,0Zm-1.824,24.49a14.335,14.335,0,0,1-5.194-2.9c-2.121-1.884-3.205-3.8-4.642-6.783a22.587,22.587,0,0,1-.983-2.544c-.27-.956-.221-.637-.231-1.2l.088-.072a3.575,3.575,0,0,1,2-.348,14.327,14.327,0,0,1,5.157,2.781,43.784,43.784,0,0,1,8.25,8.621c.141.217.274.44.409.66a13.82,13.82,0,0,0-.032,2.369,22.022,22.022,0,0,1-4.823-.577Z" transform="translate(-239.932 -381.463)"/>
    <path id="Path_49" data-name="Path 49" d="M330,563.734a39.622,39.622,0,0,1-6.319-6.626c-.507-.687-.987-1.392-1.453-2.107q.129.4.264.809a17.215,17.215,0,0,0,4.877,7.755,19.792,19.792,0,0,0,7.656,3.575C333.519,566.192,330.817,564.424,330,563.734Z" transform="translate(-267.456 -407.212)"/>
    <path id="Path_50" data-name="Path 50" d="M375.829,505.512c-2.631-2.354-5.773-4.464-9.332-4.974a5.128,5.128,0,0,0-3.6.842c-1.049.779-.923,2.307-.353,3.346a39.473,39.473,0,0,0,5.439,7.843,37.948,37.948,0,0,0,7.643,5.877c.1.575.2,1.147.284,1.59.049-.433.092-.879.124-1.33l.41.262-.4-.392c.143-2.228-.05-4.573-1.617-6.259-.139-.184.056.174.06.212a11.942,11.942,0,0,1,.809,3.71c.046.386.153,1.113.277,1.877a63.071,63.071,0,0,1-5.905-6.233,85.15,85.15,0,0,1-5.22-8.542q-.051-.136-.095-.274c.1-.052.2-.1.281-.141a2.4,2.4,0,0,1,1.188-.231,4.5,4.5,0,0,1,1.356.234c3.373.9,7.612,4.216,9.6,6.592,1.89,2.387,2.208,5.1,2,7.934a12.908,12.908,0,0,1-.949,3.254c-.057.088-.087.216.027.011a13.293,13.293,0,0,0,1.424-2.691,12.791,12.791,0,0,0,.615-3.264C380.249,510.961,378.577,508.007,375.829,505.512Z" transform="translate(-296.057 -368.121)"/>
    <path id="Path_51" data-name="Path 51" d="M396.731,651.879a27.836,27.836,0,0,0,5.48-3.178,25.792,25.792,0,0,0,5.022-5.7C403.591,645.792,400.2,648.884,396.731,651.879Z" transform="translate(-320.885 -470.321)"/>
    <path id="Path_52" data-name="Path 52" d="M354.357,665.2c-1.673-.968-3.445-1.756-5.113-2.736,2.514,2.863,5.969,4.585,9.427,6.04A33.544,33.544,0,0,0,354.357,665.2Z" transform="translate(-286.831 -484.278)"/>
    <path id="Path_53" data-name="Path 53" d="M197.243,821.856c-3.65-.594-7.341-.916-11.03-1.154,8.181,2.6,14.529,4.356,22.671,3.874A109.206,109.206,0,0,0,197.243,821.856Z" transform="translate(-169.918 -597.752)"/>
    <path id="Path_54" data-name="Path 54" d="M280.616,792.184c-.286-.688-.445-1.049-.692-1.641q-.235-.558-.46-1.121c0,.039.008.077.012.116a32.187,32.187,0,0,0,1.252,6.446,29.827,29.827,0,0,0,2.8,5.758,50.992,50.992,0,0,0-2.912-9.558Z" transform="translate(-236.79 -575.32)"/>
    <path id="Path_55" data-name="Path 55" d="M317.494,791.587c-.247-1.674-.6-3.329-.987-4.976q-.164-.707-.325-1.415l-.01.152a40.578,40.578,0,0,0,.127,8.075,39.251,39.251,0,0,0,1.733,6.891A72.246,72.246,0,0,0,317.494,791.587Z" transform="translate(-263.015 -572.29)"/>
    <path id="Path_56" data-name="Path 56" d="M364.46,807.585c-.181-.574-.357-1.15-.522-1.729,0,.074,0,.149-.007.223a19.818,19.818,0,0,0,.545,5.195,24.166,24.166,0,0,0,1.785,4.39A41.124,41.124,0,0,0,364.46,807.585Z" transform="translate(-297.358 -587.106)"/>
    <path id="Path_57" data-name="Path 57" d="M486.414,806.868a34.222,34.222,0,0,0,1.453-4.735c.3-1.518.588-3.518.776-4.818A20.39,20.39,0,0,0,486.414,806.868Z" transform="translate(-385.198 -580.981)"/>
    <path id="Path_58" data-name="Path 58" d="M524.818,762.4a19.909,19.909,0,0,0-5.474,7.37,40.557,40.557,0,0,0-3.665,14.014c.74-1.928,1.379-3.893,2.143-5.811.948-2.484,1.71-4.028,2.772-6.645.815-1.828,2.085-5.715,4.046-8.324a12.858,12.858,0,0,1,1.064-1.23C525.4,761.971,525.1,762.177,524.818,762.4Z" transform="translate(-406.185 -555.492)"/>
    <path id="Path_59" data-name="Path 59" d="M553.285,727.755c-2.2-1.524-3.929.2-5.465,1.733a62.215,62.215,0,0,0-5.786,6.6,47.462,47.462,0,0,0-7.405,13.241,31.643,31.643,0,0,0-1.956,9.9,48.476,48.476,0,0,1,1.817-5.641,63.652,63.652,0,0,1,4.829-8.959,71.494,71.494,0,0,1,9.791-12.746c.648-.646,1.286-1.306,1.994-1.886l.007-.005c.128-.083.26-.161.394-.233h.031c.057.015.109.03.151.043q.2.118.385.255c.022.018.045.036.066.055,0,.017.01.034.014.051.022,1.655-.78,3.156-2.053,5.382-4.213,7.2-8.452,12-12.858,18-.989,1.359-1.973,2.721-2.987,4.061,1.772-1.282,4.507-3.97,6.511-5.841a57.886,57.886,0,0,0,9.344-11.054C551.763,737.885,557.413,730.2,553.285,727.755Z" transform="translate(-418.37 -530.673)"/>
    <path id="Path_60" data-name="Path 60" d="M598.236,821.9a16.966,16.966,0,0,0-6.735-1.52c-5.057.225-9.786,2.324-14.459,4.093,3.422-.513,6.833-1.1,10.223-1.8,1.834-.308,3.727-.692,5.012-.794a27.161,27.161,0,0,1,5.316.173c.529.068.955.13,1.516.227Q598.675,822.085,598.236,821.9Z" transform="translate(-450.189 -597.52)"/>
    <path id="Path_61" data-name="Path 61" d="M689.11,810.75a69.085,69.085,0,0,0-10.418-1.679,55.465,55.465,0,0,0-10.08,1.153c2.936.308,5.887.42,8.835.532,3,.185,6.007.261,9.012.149.965-.03,1.929-.066,2.893-.1Z" transform="translate(-515.856 -589.41)"/>
    <path id="Path_62" data-name="Path 62" d="M772.849,680.653c-.691-2.693-2.195-7.781-5.435-8.108-1.807-.04-2.19,1.464-1.8,2.958a28.625,28.625,0,0,1,.172,4.156,19.825,19.825,0,0,1-.718,5.89,17.573,17.573,0,0,1-2.769,5.918,30.528,30.528,0,0,1-2.974,3.952c.281-.752.538-1.514.766-2.286a27.328,27.328,0,0,0,1.083-11.314,13.447,13.447,0,0,0-2.277-6.606,10.648,10.648,0,0,0-4.48-3.62,4.7,4.7,0,0,0-4.555.771,5.692,5.692,0,0,0-1.442,3.691c-.12.872-.232,1.745-.342,2.619-.288,2.3-.693,5.65-.906,7.1-.033.214.025-.163.034-.252-.567,3.915-1.282,7.809-2.116,11.676-.371-2-.831-3.993-1.354-5.965-1.181-4.081-2.667-8.761-6.509-12.234-2-1.912-5.066-3.957-7.824-2.4a4.958,4.958,0,0,0-2.3,4.836c.393,3.578,2.123,6.851,3.89,9.929,2.436,4.164,5.2,8.124,7.828,12.164a25.4,25.4,0,0,1,3.366,7.834c-3.256-.568-6.155-.929-9.742-1.246a23.88,23.88,0,0,0,9.994,2.262q.079.337.154.676,0-.337-.006-.674l.2,0a1.982,1.982,0,0,0-.144.667c-.014,1.586,1.295,2.173,2.618,1.588a42.684,42.684,0,0,0,6.216-.834,29.4,29.4,0,0,0,16.495-10.61C772.558,696.781,774.767,688.405,772.849,680.653ZM748.24,695.288a135.357,135.357,0,0,0,2.089-15.027c.472-4.636.256-6.33,1.794-6.645,1.587-.1,1.95.271,3.074,1.164a8,8,0,0,1,1.98,2.322c1.808,3.2,1.831,8.474.875,12.436a34.963,34.963,0,0,1-6.349,13.756c-1.863,1.734-3.707,3.372-5.629,5.242a18.948,18.948,0,0,0,.01-3.209C746.68,702.4,747.634,698.508,748.24,695.288Zm-5.684,16.139a23.119,23.119,0,0,0-1.4-7.383,77.145,77.145,0,0,0-6.178-11.6,61.394,61.394,0,0,1-3.793-6.781l-.013-.028c-1.755-4.213-2.078-5.713-.625-6.916,1.034-.787,2.827-.008,4.636,1.644,3.5,3.178,4.55,6.565,5.93,11.514a62.114,62.114,0,0,1,2.065,13.713c-.19.92-.363,1.844-.5,2.775a4.085,4.085,0,0,0,.089,2.523,1.583,1.583,0,0,0,.59.575c.047-.06.039-.05,0,0h0l-.074.1h0l.074-.1h0l-.076.1ZM769.675,692.4a28.27,28.27,0,0,1-4.729,9.624A36.41,36.41,0,0,1,759,707.387a42.415,42.415,0,0,1-5.669,3.688,52.332,52.332,0,0,1-7.268,3,39.964,39.964,0,0,0,5.065-5.251c1.132-1.307,2.2-2.673,3.2-4.091,1.618-1.511,3.2-3.058,4.715-4.676A45.4,45.4,0,0,0,766,691.27a22.779,22.779,0,0,0,2.834-12.455c-.01-.486-.026-.973-.054-1.459a20.183,20.183,0,0,1,.819,2.327,21.036,21.036,0,0,1,.915,6.547A20.443,20.443,0,0,1,769.675,692.4Z" transform="translate(-557.789 -490.637)"/>
    <path id="Path_63" data-name="Path 63" d="M672.418,622.287s0,.008,0,.012v0Z" transform="translate(-518.585 -455.465)"/>
    <path id="Path_64" data-name="Path 64" d="M679.256,601.952a.856.856,0,0,0-.2-.413l.047.058a3.911,3.911,0,0,1-.166-.377,1.1,1.1,0,0,0,.046-.113.982.982,0,0,0-.062-.644,1.5,1.5,0,0,0-.091-.2,2.479,2.479,0,0,0-.352-.568,1.035,1.035,0,0,0-.057-.107,8.4,8.4,0,0,0-2.312-2.234,7.187,7.187,0,0,0-1.315-1.589c-.514-.517-1.034-1.03-1.567-1.528a10.9,10.9,0,0,0-.169-1.094.785.785,0,0,0-.087-.287c0-.018-.008-.035-.011-.053V592.8c-.063-.692-.115-1.386-.13-2.081a5.246,5.246,0,0,0-.032-.8.7.7,0,0,0-.077-.173.932.932,0,0,1-.028-.09,1.211,1.211,0,0,1-.026-.406c.027-.249.051-.718.074-.909a.5.5,0,0,0,.013-.323c.01-.275.032-.673-.253-.74h0c-.013-.184-.024-.369-.038-.553a1.779,1.779,0,0,0,2.229-.656,1.818,1.818,0,0,0-.287-2.331c-.007-.023-.015-.046-.023-.069a1.191,1.191,0,0,0-.306-.846.99.99,0,0,0-.7-.793,1.07,1.07,0,0,0-1.029.218,1.22,1.22,0,0,0-.488.363,1.762,1.762,0,0,0-1.037,1.589,1.422,1.422,0,0,0,.659,1.5,1.88,1.88,0,0,0,.213.223,2.218,2.218,0,0,0,.369.523,1.513,1.513,0,0,0,.394.272c-.024.178-.058.357-.093.536a.218.218,0,0,0-.091.032.353.353,0,0,0-.2.244s0,0,0-.006l0,.022a.66.66,0,0,0-.017.076l-.015.071a2.408,2.408,0,0,0-.059.3,4.156,4.156,0,0,0-.465,1.579,2.226,2.226,0,0,0,.037.558c-.02.1-.04.193-.058.29-.033.179-.056.359-.083.539a1.618,1.618,0,0,0-.161-.123,1.471,1.471,0,0,0,.15.2c-.069.467-.128.935-.172,1.4a2.809,2.809,0,0,0,.033.947.591.591,0,0,1,0-.1c0,.037,0,.075,0,.112a1.44,1.44,0,0,0,.05.162.431.431,0,0,1-.05-.157c.014.375.02.751,0,1.125a1.009,1.009,0,0,0,.018.456,23.043,23.043,0,0,0,1.962,2.728,1.41,1.41,0,0,0,.037.261,1.605,1.605,0,0,0,.653.829,1.728,1.728,0,0,0,.461.374c.671.537,1.295,1.132,1.978,1.652-.129-.1-.243-.186-.023-.006a1.691,1.691,0,0,1,.221.211l.01-.013a1.249,1.249,0,0,0,.7.355c.013.016.026.033.038.05.2.282.422.5.628.8.038.05.076.1.116.149a6.025,6.025,0,0,1,.265,1.094c0,.078,0,.156-.008.234a3.825,3.825,0,0,0-.152,1.147.187.187,0,0,0-.024.018.435.435,0,0,0-.02.471c.037.273.078.6.122.924a.38.38,0,0,0-.1.069.112.112,0,0,1,.105-.017c.008.057.015.115.023.171,0,.033.013.074.053.073s.054-.051.051-.088v0c.032-.069,0-.233.034-.3.029-.259.057-.518.082-.778a.315.315,0,0,0,.112-.174c.194-.38.367-1.047.469-1.212a2.768,2.768,0,0,0,.149-.621A3.27,3.27,0,0,0,679.256,601.952Z" transform="translate(-517.419 -426.559)"/>
    <path id="Path_65" data-name="Path 65" d="M503.94,526.745a70.629,70.629,0,0,1-3.556,6.8c-1.807,3.155-3.775,6.213-5.638,9.335a95.791,95.791,0,0,1-7.665,11.251c-3.271,4.2-7.368,7.643-11.046,11.47a91,91,0,0,0-12.971,16.1,31.055,31.055,0,0,0-3.357,7.477,42.254,42.254,0,0,0-1.365,10.233,98.463,98.463,0,0,0,1.382,12.708c.217-5.292.13-11.992.832-15.611a44.616,44.616,0,0,1,2.014-8.8c2.244-5.533,6.592-11.252,11.076-16.266A96.39,96.39,0,0,0,483.387,575c1.232.556,2.29.708,3.082-.6a16.666,16.666,0,0,0,1.332-3.952c.263-1.144.5-2.294.72-3.447.132-.715.394-1.595-.257-2.137-.9-.712-2.122-.694-3.2-.88-1.253-.174-2.51-.322-3.772-.4,1.888-1.84,3.769-3.685,5.541-5.638a94.561,94.561,0,0,0,12.1-17.98,69.681,69.681,0,0,0,3.639-8,32.746,32.746,0,0,0,1.773-5.849q.072-.376.144-.751C504.3,525.83,504.124,526.289,503.94,526.745Zm-19.049,38.776c.781.263,1.379.412,1.738.572-.228.851-.483,1.7-.719,2.543-.469,1.488-.823,3.017-1.383,4.474l-.165-.036c-2.491-.533-5.312-.764-7.454-1.063-.565-.085-2.177-.411-3.217-.617.547-.611,1.1-1.213,1.642-1.8,1.731-1.882,3.558-3.669,5.389-5.453C482.121,564.574,483.5,565.077,484.892,565.521Z" transform="translate(-365.067 -385.966)"/>
    <path id="Path_66" data-name="Path 66" d="M470.913,491.846a40.406,40.406,0,0,0-7.427-14.8,54.015,54.015,0,0,0-4.566-5.493,61.771,61.771,0,0,0-5.843-5.051c-.649-.492-1.314-.963-1.988-1.419q.252.294.5.59c2.282,2.724,4.032,5.006,6.162,7.953,1.063,1.555,2.028,3.175,3.072,4.742,1.324,2.008,2.688,3.992,3.916,6.062a53.892,53.892,0,0,1,3.737,7.645,22.456,22.456,0,0,1,1.788,8.83,27.129,27.129,0,0,1-.667,4.792,25.407,25.407,0,0,0,1.605-4.533A20.8,20.8,0,0,0,470.913,491.846Z" transform="translate(-359.866 -342.734)"/>
    <path id="Path_67" data-name="Path 67" d="M595.935,410.446a25.787,25.787,0,0,0-3.7-6.507,29.714,29.714,0,0,0-1.995-2.344q.419.9.8,1.812c.187.434.789,1.885,1.116,2.841a34.167,34.167,0,0,1,2.05,7.809l-.046-.342a35.188,35.188,0,0,1,.43,4.807c-.146,3.7-.812,7.358-1.042,11.053.714-1.91,1.384-3.837,2.044-5.767a26.218,26.218,0,0,0,1.276-4.766A18.688,18.688,0,0,0,595.935,410.446Z" transform="translate(-459.656 -297.202)"/>
    <path id="Path_68" data-name="Path 68" d="M675.846,761.027a43.015,43.015,0,0,0-9.08-.9,61.329,61.329,0,0,0-10.6,1.376,88.022,88.022,0,0,0,15.9.1q2.13-.183,4.25-.476Z" transform="translate(-506.93 -554.309)"/>
    <path id="Path_69" data-name="Path 69" d="M430.612,689.291c-3.079-19.255,8.61-39.873,26.309-48.645C443.838,654.148,435.263,671.947,430.612,689.291Z" transform="translate(-344.829 -468.63)" fill="#9cec5b"/>
  </g>
</svg>
