<svg xmlns="http://www.w3.org/2000/svg" width="1920" height="382" viewBox="0 0 1920 382">
  <g id="layered-waves-haikei_5_" data-name="layered-waves-haikei(5)" transform="translate(0 -350)">
    <path id="Path_80" data-name="Path 80" d="M0,350l45.6,10c45.8,10,137,30,228.4,47.4,91.4,17.2,182.6,32,274,35.2,91.4,3.4,182.6-4.6,274.4-6.2,91.6-1.8,183.6,3,275.2,3.2,91.8.4,183-3.6,274.4-21.6s182.6-50,274-54.4c91.4-4.2,182.6,19,228.4,30.8L1920,406V732H0Z" fill="#91aae5"/>
    <path id="Path_81" data-name="Path 81" d="M0,381.216l45.6,3.4c45.8,3.2,137,10,228.4,9.6s182.6-7.6,274-13.4c91.4-5.6,182.6-9.6,274.4-13.2,91.6-3.8,183.6-7,275.2,13,91.8,20,183,63.2,274.4,71.6s182.6-18.4,274-23,182.6,12.6,228.4,21.4l45.6,8.6v258H0Z" transform="translate(0 14.784)" fill="#7997df"/>
    <path id="Path_82" data-name="Path 82" d="M0,466.623l45.6,5c45.8,5,137,15,228.4,10.4,91.4-4.8,182.6-24,274-28.4s182.6,6.4,274.4-3.4c91.6-9.6,183.6-39.6,275.2-34.2,91.8,5.2,183,46,274.4,64.6s182.6,15.4,274,15.6c91.4.4,182.6,4.4,228.4,6.4l45.6,2v162H0Z" transform="translate(0 65.378)" fill="#6184d8"/>
    <path id="Path_83" data-name="Path 83" d="M0,530.56l45.6-14c45.8-14,137-42,228.4-44.4,91.4-2.2,182.6,21,274,29.8,91.4,8.6,182.6,2.6,274.4-11.8,91.6-14.2,183.6-37,275.2-43,91.8-6,183,4.8,274.4,15.4s182.6,21.4,274,20.4,182.6-13.8,228.4-20l45.6-6.4v180H0Z" transform="translate(0 95.44)" fill="#5371bc"/>
    <path id="Path_84" data-name="Path 84" d="M0,473l45.6,2c45.8,2,137,6,228.4,14.6,91.4,8.8,182.6,22,274,23.4s182.6-9.4,274.4-15.6c91.6-6.4,183.6-8.4,275.2-2.8,91.8,5.8,183,19,274.4,29s182.6,16.8,274,22c91.4,5.4,182.6,9.4,228.4,11.4l45.6,2v50H0Z" transform="translate(0 123)" fill="#455fa1"/>
  </g>
</svg>
